<svg width="75" height="75" viewBox="0 0 75 75" fill="none" xmlns="http://www.w3.org/2000/svg">
    <path fill-rule="evenodd" clip-rule="evenodd" d="M71.0089 23.6024C56.9324 49.7773 28.8131 60.4189 2.69646 45.683C1.82703 45.1923 0.724491 45.4991 0.233807 46.3578C-0.256877 47.2318 0.0498333 48.3359 0.919265 48.8265C28.9128 64.6358 59.1037 53.3654 74.1922 25.3198C74.6645 24.4457 74.3348 23.3415 73.4562 22.8662C72.5776 22.4062 71.4812 22.7283 71.0089 23.6024Z" fill="white"/>
    <path d="M24.6743 34.4571C27.5821 34.4571 29.9393 32.0999 29.9393 29.1922C29.9393 26.2845 27.5821 23.9273 24.6743 23.9273C21.7666 23.9273 19.4094 26.2845 19.4094 29.1922C19.4094 32.0999 21.7666 34.4571 24.6743 34.4571Z" fill="white"/>
    <path d="M46.4704 28.8566C49.3213 28.8566 51.6324 26.5455 51.6324 23.6946C51.6324 20.8436 49.3213 18.5326 46.4704 18.5326C43.6194 18.5326 41.3083 20.8436 41.3083 23.6946C41.3083 26.5455 43.6194 28.8566 46.4704 28.8566Z" fill="white"/>
</svg>
