<svg width="365" height="45" viewBox="0 0 365 45" fill="none" xmlns="http://www.w3.org/2000/svg">
    <path fill-rule="evenodd" clip-rule="evenodd" d="M120.68 16.5495C80.5496 18.4931 40.3842 22.5956 1.99273 32.0089C1.30773 32.1763 1.03509 32.4412 0.981823 32.5013C0.670378 32.8569 0.656038 33.2159 0.715634 33.5071C0.751517 33.684 0.966769 34.4272 1.90112 34.4491C2.54645 34.463 7.0826 33.8224 8.83559 33.6225C17.0882 32.6831 25.3127 31.5558 33.527 30.3302C52.1522 27.5576 70.7654 25.0089 89.4409 22.585C99.9259 21.2232 110.423 19.987 120.92 18.8603C146.262 17.6373 171.592 17.2764 196.453 16.9815C186.636 18.179 177.62 19.3369 170.137 20.1859C157.518 21.6168 144.93 23.168 132.359 24.9709C125.9 25.8954 119.452 26.8656 113.014 27.9404C112.301 28.0611 110.671 28.2389 109.886 28.3808C109.552 28.4387 109.312 28.5142 109.206 28.5627C108.538 28.8681 108.484 29.4147 108.492 29.6881C108.498 29.8541 108.609 30.7552 109.773 30.8623C163.938 35.9161 219.353 22.9333 273.697 27.7447C274.334 27.8012 274.9 27.3292 274.956 26.6898C275.012 26.0524 274.54 25.4868 273.901 25.4303C222.718 20.899 170.585 32.1538 119.435 29.255C123.848 28.5585 128.265 27.9039 132.688 27.27C145.236 25.4706 157.802 23.9229 170.399 22.4933C183.077 21.0569 200.19 18.7098 218.136 16.8015C233.631 16.7356 249.125 16.7751 264.62 16.6671C271.157 16.6205 277.692 16.5149 284.228 16.4747C286.914 16.4568 293.84 16.6416 294.825 16.3592C295.591 16.1385 295.745 15.5711 295.774 15.2893C295.804 14.9842 295.752 14.6103 295.378 14.2725C295.262 14.1658 294.921 13.9503 294.238 13.7976C275.762 9.68449 246.025 11.5503 218.245 14.4781C212.233 14.5017 206.223 14.5421 200.212 14.6141C186.451 14.776 172.539 14.9449 158.556 15.2591C197.816 11.9291 237.17 9.84885 276.559 8.19183C293.097 7.49684 337.735 6.60971 355.368 7.13384C355.167 7.36703 355.06 7.68098 355.095 8.01378C355.162 8.65001 355.735 9.11269 356.374 9.04491C359.982 8.66001 362.061 8.32045 362.877 8.05037C363.385 7.88299 363.653 7.64787 363.775 7.49736C364.073 7.13405 364.11 6.76115 364.026 6.41445C363.973 6.19859 363.86 5.96526 363.62 5.7585C363.46 5.61646 363.077 5.40777 362.438 5.28814C355.441 3.98706 296.154 5.04303 276.462 5.8703C224.425 8.06055 172.454 10.9883 120.68 16.5495ZM280.149 14.1834C269.909 13.4139 257.973 13.6433 245.553 14.4198C251.902 14.4076 258.253 14.3868 264.605 14.3428C269.786 14.308 274.967 14.2331 280.149 14.1834ZM72.9521 22.4177C59.6846 24.1992 46.4366 26.0596 33.185 28.0339C31.6547 28.2604 30.1264 28.4848 28.596 28.7072C43.2201 26.0187 58.037 23.9779 72.9521 22.4177Z" fill="#F8D55F"/>
</svg>
