<svg width="100" height="100" viewBox="0 0 100 100" fill="none" xmlns="http://www.w3.org/2000/svg">
    <circle cx="50" cy="50" r="50" fill="#4488B8"/>
    <path fill-rule="evenodd" clip-rule="evenodd" d="M47.2547 43.7852C42.6134 39.97 38.8526 35.4265 36.0265 30.1331C35.4613 29.0787 34.1461 28.6765 33.0809 29.2418C32.0265 29.807 31.6243 31.1222 32.1895 32.1874C35.2982 37.9809 39.407 42.9592 44.4939 47.144C45.4178 47.9048 46.7982 47.7744 47.5591 46.8505C48.3199 45.9157 48.1786 44.5461 47.2547 43.7852Z" fill="white"/>
    <path fill-rule="evenodd" clip-rule="evenodd" d="M44.7798 28.9266C45.0189 33.3179 45.2363 37.7092 45.5081 42.1005C45.5842 43.2961 46.6168 44.2092 47.8124 44.1331C49.0081 44.057 49.9211 43.0244 49.845 41.8288C49.5733 37.4483 49.3558 33.0679 49.1167 28.6766C49.0515 27.4842 48.0189 26.5657 46.8233 26.6331C45.6276 26.7005 44.7037 27.7277 44.7798 28.9266Z" fill="white"/>
    <path fill-rule="evenodd" clip-rule="evenodd" d="M60.9167 29.818C58.1341 34.0136 54.9821 37.8831 51.8081 41.7962C51.0473 42.731 51.1885 44.1006 52.1233 44.8506C53.0581 45.6115 54.4277 45.4701 55.1777 44.5353C58.4386 40.5245 61.6777 36.5353 64.5472 32.2201C65.2103 31.2201 64.9276 29.8723 63.9276 29.2093C62.9385 28.5462 61.5798 28.818 60.9167 29.818Z" fill="white"/>
    <path fill-rule="evenodd" clip-rule="evenodd" d="M71.6957 45.4157C64.1522 45.7527 56.1413 45.7636 48.5978 45.2853C47.4022 45.2201 46.3696 46.1223 46.2935 47.3288C46.2174 48.5244 47.1304 49.557 48.3261 49.6331C56.0217 50.1114 64.1957 50.1005 71.8914 49.7636C73.087 49.7092 74.0217 48.6875 73.9674 47.4919C73.913 46.2962 72.8913 45.3614 71.6957 45.4157Z" fill="white"/>
    <path fill-rule="evenodd" clip-rule="evenodd" d="M44.4883 46.796C49.1404 52.4917 53.9557 58.0787 58.2709 64.0352C58.9774 65.0026 60.3362 65.2199 61.3144 64.5134C62.2818 63.8069 62.4992 62.4482 61.7926 61.4808C57.4231 55.459 52.5536 49.8069 47.847 44.046C47.0862 43.1221 45.7165 42.9808 44.7926 43.7417C43.8578 44.5026 43.7274 45.8721 44.4883 46.796Z" fill="white"/>
    <path fill-rule="evenodd" clip-rule="evenodd" d="M45.8969 48.4487C47.1143 54.3835 47.4513 60.0574 47.5382 66.0683C47.5491 67.264 48.5383 68.2204 49.7339 68.2096C50.9404 68.1878 51.8969 67.2095 51.8752 66.003C51.7882 59.7095 51.4296 53.7857 50.1578 47.5683C49.9078 46.3944 48.7666 45.6334 47.5818 45.8834C46.4079 46.1226 45.6469 47.2748 45.8969 48.4487Z" fill="white"/>
    <path fill-rule="evenodd" clip-rule="evenodd" d="M46.0932 47.9707C42.5714 55.0141 40.7562 62.8403 36.9845 69.7316C36.4084 70.775 36.7996 72.1011 37.854 72.6772C38.9083 73.2533 40.2236 72.8619 40.7997 71.8184C44.5932 64.8836 46.4301 57.0141 49.9844 49.9163C50.517 48.8402 50.0822 47.5359 49.017 46.9924C47.9409 46.4598 46.6367 46.8946 46.0932 47.9707Z" fill="white"/>
    <path fill-rule="evenodd" clip-rule="evenodd" d="M48.0314 46.3722C41.0205 47.6114 34.0205 48.1766 26.9661 49.0135C25.7705 49.1548 24.9227 50.231 25.064 51.4266C25.2053 52.6223 26.2815 53.4701 27.4771 53.3288C34.6075 52.4918 41.6945 51.9049 48.7923 50.6549C49.9662 50.4375 50.7597 49.307 50.5532 48.1331C50.3358 46.9483 49.2161 46.1548 48.0314 46.3722Z" fill="white"/>
    <path fill-rule="evenodd" clip-rule="evenodd" d="M52.9097 43.0685C51.4641 43.0033 50.0945 42.9054 48.6815 42.6989C47.4858 42.525 46.388 43.3511 46.214 44.5359C46.0401 45.7206 46.8662 46.8294 48.0509 47.0033C49.6162 47.2315 51.1271 47.3402 52.714 47.4054C53.9097 47.4598 54.9314 46.5358 54.9748 45.3293C55.0292 44.1337 54.1054 43.1228 52.9097 43.0685Z" fill="white"/>
</svg>
