<svg width="145" height="136" viewBox="0 0 145 136" fill="none" xmlns="http://www.w3.org/2000/svg">
    <path fill-rule="evenodd" clip-rule="evenodd" d="M63.1775 41.0779C62.8181 40.5961 62.6629 39.6649 62.8099 38.9625C65.0478 28.0833 65.7666 17.0952 64.9662 5.99821C64.8845 4.80574 64.5333 3.41182 63.9126 1.81642C63.8091 1.54961 63.6212 1.36175 63.349 1.25285L60.4332 0.0685439C60.2097 -0.0222599 59.9595 -0.0228637 59.7345 0.066849C59.5094 0.156562 59.3268 0.329735 59.2243 0.550453C57.9284 3.36554 57.0654 6.21059 56.6352 9.08558C55.6061 15.9246 55.3339 22.7935 55.8185 29.6923C56.1207 34.062 57.5337 40.9963 62.4751 42.1397C63.6566 42.4174 63.8908 42.0635 63.1775 41.0779ZM60.528 28.3076C60.4039 28.8451 60.2787 29.1201 60.1597 29.1169C59.9194 29.1104 59.7185 27.9715 59.6014 25.9504C59.4842 23.9294 59.4604 21.1919 59.535 18.3401C59.572 16.928 59.6321 15.5303 59.7118 14.2269C59.7915 12.9235 59.8893 11.7398 59.9996 10.7435C60.1099 9.74716 60.2306 8.95776 60.3547 8.42027C60.4788 7.88277 60.6039 7.60773 60.7229 7.61089C60.9633 7.61735 61.1641 8.75639 61.2813 10.7774C61.3984 12.7984 61.4223 15.5359 61.3476 18.3877C61.3106 19.7998 61.2506 21.1975 61.1709 22.501C61.0911 23.8044 60.9933 24.988 60.883 25.9843C60.7727 26.9806 60.6521 27.7701 60.528 28.3076ZM81.8326 42.3928C81.5059 41.4699 81.4487 40.4735 81.4651 39.4852C81.4705 38.9951 81.6175 38.5187 81.9061 38.0559C87.8195 28.5869 91.7916 18.3121 93.8226 7.23145C94.182 5.24945 93.6212 3.7956 92.1401 2.86994C89.3386 1.12208 86.7332 5.79396 85.8592 7.84402C83.0387 14.4598 80.8253 21.2715 79.219 28.2793C78.4022 31.8458 78.1436 35.4341 78.4431 39.0442C78.5819 40.7348 79.3987 42.1805 80.6238 43.2178C82.0504 44.4266 82.4534 44.1516 81.8326 42.3928ZM90.768 7.05179C90.0819 11.1574 88.8812 15.5651 87.1661 20.275C86.4255 22.3115 84.7212 26.025 82.0531 31.4156C82.0096 31.4973 81.9443 31.5246 81.8571 31.4973L81.6611 31.4238C81.6284 31.4129 81.6176 31.3911 81.6284 31.3584C83.6622 22.9377 85.8184 14.0432 89.9103 6.74954C90.7761 5.21404 91.062 5.31482 90.768 7.05179ZM69.9647 21.3536C69.4642 28.0108 70.269 33.4986 71.7624 33.6109C73.2558 33.7232 74.8722 28.4174 75.3727 21.7602C75.8733 15.103 75.0685 9.6152 73.5751 9.50291C72.0817 9.39062 70.4653 14.6963 69.9647 21.3536ZM50.2483 37.2473C50.4389 37.2964 50.6294 37.329 50.82 37.3454C50.9834 37.3562 51.1331 37.408 51.2692 37.5005C51.4162 37.604 51.566 37.6503 51.7185 37.6394C51.9962 37.623 52.1867 37.4869 52.2902 37.231C52.655 36.3271 52.6877 35.445 52.3882 34.5847C50.5477 29.2268 48.2064 23.7545 45.3641 18.1679C44.776 17.019 43.7469 16.2267 42.2767 15.7911C42.1336 15.7484 41.9827 15.7393 41.8355 15.7644C41.6883 15.7894 41.5488 15.8481 41.428 15.9357C41.3071 16.0234 41.2081 16.1378 41.1385 16.2699C41.069 16.4021 41.0309 16.5485 41.0271 16.6978C40.9999 17.4982 41.106 18.4293 41.3456 19.4911C42.7259 25.6004 45.4866 32.4285 49.8889 37.0186C49.9978 37.133 50.1176 37.2092 50.2483 37.2473ZM91.5518 30.4595C93.8169 25.1669 96.9397 20.5005 100.92 16.4603C101.063 16.3151 101.247 16.2153 101.448 16.1733C101.65 16.1312 101.861 16.1486 102.055 16.2235C104.081 17.032 102.872 20.5767 102.014 22.1122C101.56 22.9195 101.108 23.7352 100.655 24.5539C98.2335 28.9291 95.7617 33.3949 92.5074 37.1651C92.3018 37.4015 92.0258 37.5655 91.72 37.6332C91.4141 37.7008 91.0946 37.6684 90.8086 37.5408C90.2695 37.3012 90.0326 36.8384 90.098 36.1523C90.294 34.1649 90.7786 32.2673 91.5518 30.4595ZM24.7653 20.5827L24.7652 20.5827L24.7651 20.5826C24.2499 20.3154 23.7278 20.0447 23.1966 19.744C20.3978 18.1594 17.7161 18.0451 15.1515 19.4009C14.7618 19.6067 14.4692 19.9577 14.3375 20.3771C14.2059 20.7965 14.246 21.2502 14.4491 21.6388C17.1063 26.7517 21.0566 31.1976 26.3002 34.9765C33.1202 39.8852 39.6869 44.0262 47.5523 46.0517C48.6964 46.3468 49.1875 46.908 49.8579 47.6741C49.9485 47.7776 50.0423 47.8848 50.1414 47.9956C50.3265 48.197 50.5525 48.2678 50.8193 48.2079C52.4256 47.8431 53.2178 46.7732 53.1961 44.9981C53.1906 44.7258 53.0708 44.5162 52.8367 44.3692C52.2758 44.0152 51.9219 43.762 51.7749 43.6096C47.702 39.259 44.3914 35.9648 41.8431 33.7268C38.7776 31.0315 34.2228 27.3371 28.1788 22.6434C27.0579 21.7716 25.9291 21.1862 24.7653 20.5827L24.7653 20.5827ZM44.3587 41.731C44.0647 41.7419 43.7816 41.6657 43.5093 41.5024C37.7484 38.0774 33.2345 35.0663 29.9675 32.4691C26.3465 29.5886 22.7474 26.7463 19.17 23.9421C18.3205 23.2724 17.7651 22.7061 17.5038 22.2432C16.9211 21.2141 17.1607 20.9582 18.2225 21.4755C25.0098 24.7588 30.3759 28.9733 36.5995 34.2169C39.3112 36.5038 41.9357 38.9105 44.4731 41.437C44.4971 41.4605 44.5137 41.4906 44.5208 41.5234C44.5279 41.5563 44.5252 41.5905 44.513 41.6218C44.5008 41.6531 44.4797 41.6802 44.4523 41.6996C44.4249 41.719 44.3923 41.73 44.3587 41.731ZM126.435 31.8322C122.629 34.2062 118.679 36.308 114.584 38.1376C113.692 38.5343 112.805 38.9399 111.918 39.3453C108.899 40.7257 105.886 42.1033 102.717 43.1198C101.803 43.4109 100.964 43.74 100.134 44.0651C98.5898 44.6703 97.0804 45.2619 95.1942 45.57C94.89 45.6175 94.6156 45.7781 94.4264 46.0192L93.1278 47.7099C93.0874 47.7614 93.034 47.8014 92.9734 47.8259C92.9127 47.8505 92.8469 47.8586 92.7828 47.8494C92.7186 47.8403 92.6585 47.8142 92.6086 47.7738C92.5587 47.7335 92.5208 47.6804 92.4989 47.6201C91.5515 45.1535 92.2375 43.2341 93.9364 41.1922C98.2373 36.0175 104.824 32.8087 110.781 29.9065C111.283 29.6617 111.781 29.4191 112.273 29.1777C117.669 26.526 123.236 24.7563 128.975 23.8688C130.13 23.6891 130.758 24.1683 130.862 25.3063C130.938 26.1503 130.982 26.9888 130.993 27.8219C130.998 28.1323 130.889 28.3963 130.666 28.6141C129.588 29.6759 128.178 30.7486 126.435 31.8322ZM123.356 29.1369C123.373 29.1257 123.387 29.1105 123.396 29.0927C123.406 29.0749 123.411 29.055 123.411 29.0348C123.411 29.0146 123.406 28.9947 123.396 28.9769C123.387 28.959 123.373 28.9439 123.356 28.9327C123.285 28.8891 123.193 28.8864 123.078 28.9245C115.902 31.2768 109.172 34.5166 102.888 38.644C102.867 38.6587 102.849 38.6786 102.837 38.7018C102.826 38.725 102.82 38.7508 102.821 38.7769C102.821 38.8029 102.829 38.8283 102.842 38.8507C102.855 38.8732 102.874 38.892 102.896 38.9053C103.076 39.0142 103.272 39.0278 103.484 38.9461C110.421 36.3815 117.045 33.1118 123.356 29.1369ZM36.5508 47.0075C33.2457 44.9983 29.7717 43.3266 26.129 41.9926C23.4664 41.0179 20.997 40.125 18.721 39.3136C17.2835 38.7991 14.433 38.3744 13.6244 40.1794C13.5462 40.3509 13.5303 40.5443 13.5795 40.7262C13.6287 40.9082 13.7399 41.0672 13.8939 41.1758C18.2554 44.3013 22.9164 46.6536 27.8769 48.2326C30.4088 49.0385 33.0769 49.4605 35.8811 49.4986C36.1517 49.5012 36.4173 49.4263 36.646 49.283C36.8748 49.1396 37.0572 48.9338 37.1715 48.69C37.4928 48.0148 37.2859 47.454 36.5508 47.0075ZM115.869 47.6053C122.519 45.2241 127.515 42.1886 127.027 40.8254C126.539 39.4621 120.752 40.2874 114.101 42.6686C107.451 45.0498 102.455 48.0853 102.943 49.4485C103.431 50.8118 109.218 49.9865 115.869 47.6053ZM111.366 52.3161C109.292 52.8007 107.25 53.495 105.241 54.3988C105.031 54.4932 104.821 54.5864 104.612 54.6795C102.155 55.7699 99.7415 56.8411 98.8535 59.6179C98.3798 61.1153 98.7555 61.3712 99.9806 60.3857C100.754 59.7649 101.854 59.1442 103.28 58.5235C103.531 58.4146 103.789 58.3819 104.056 58.4254C106.61 58.812 109.409 58.959 112.452 58.8665C118.638 58.6705 123.62 58.3329 127.399 57.8537C132.044 57.2602 136.22 56.3808 139.928 55.2156C142.117 54.5295 143.029 53.092 142.664 50.9031C142.621 50.6308 142.49 50.4103 142.272 50.2415C139.816 48.2986 134.186 48.8574 130.629 49.2106L130.446 49.2288C123.612 49.9257 117.252 50.9549 111.366 52.3161ZM111.399 55.3953C112.472 55.0413 113.536 54.7582 114.592 54.5459C120.827 53.2772 126.874 52.3896 132.733 51.8832C134.97 51.6926 137.108 51.7253 139.144 51.9812C139.205 51.9932 139.26 52.0253 139.301 52.0724C139.342 52.1196 139.365 52.179 139.368 52.2411C139.371 52.3033 139.353 52.3646 139.317 52.4152C139.28 52.4658 139.228 52.5029 139.169 52.5203C130.127 54.603 121.143 56.1222 111.423 55.5668C111.118 55.5505 111.11 55.4933 111.399 55.3953ZM22.2578 50.8055C29.2111 51.9762 36.2515 53.6941 43.3791 55.9592C44.2404 56.2284 44.8483 55.9834 45.6323 55.6675L45.7804 55.608C45.8849 55.5649 45.9996 55.5541 46.1101 55.577C46.2207 55.5999 46.322 55.6555 46.4015 55.7367C46.4809 55.8179 46.5349 55.9211 46.5567 56.0334C46.5784 56.1457 46.5669 56.2619 46.5236 56.3676C46.1207 57.3586 45.5081 58.2189 44.6859 58.9486C42.497 60.8925 38.0538 61.2192 35.2687 61.1865C26.9432 61.0776 18.7702 59.9069 10.7497 57.6744C7.67865 56.8196 4.66208 55.5182 1.69998 53.7703C1.50605 53.6551 1.36328 53.4707 1.30099 53.255C1.23871 53.0392 1.26165 52.8086 1.3651 52.6105C1.90416 51.5651 2.63382 50.6258 3.55403 49.7927C3.7555 49.613 3.98962 49.5042 4.25643 49.466C5.72659 49.2537 7.17498 49.1883 8.60158 49.27C13.219 49.5368 17.771 50.0486 22.2578 50.8055ZM32.9277 57.1342C32.9622 56.916 31.7792 56.5141 29.6387 56.0169C27.4983 55.5197 24.5758 54.9679 21.5142 54.483C18.4527 53.9981 15.5028 53.6198 13.3135 53.4312C11.1241 53.2426 9.8747 53.2593 9.83996 53.4774C9.80542 53.6957 10.9885 54.0976 13.1289 54.5948C15.2694 55.092 18.1919 55.6437 21.2535 56.1286C24.315 56.6135 27.2649 56.9919 29.4542 57.1805C31.6435 57.3691 32.893 57.3524 32.9277 57.1342ZM129.809 66.3154C131.197 66.2746 133.394 65.858 134.186 64.6901C134.296 64.5284 134.365 64.3423 134.387 64.148C134.408 63.9537 134.382 63.757 134.311 63.5751C134.239 63.3932 134.124 63.2315 133.976 63.1041C133.827 62.9767 133.65 62.8875 133.46 62.8442C127.546 61.483 121.372 61.1563 114.935 61.8641C113.28 62.0492 111.709 62.4304 110.223 63.0075C109.586 63.258 109.243 63.759 109.194 64.5104C109.179 64.7592 109.254 65.0051 109.405 65.2031C109.557 65.4011 109.774 65.5379 110.019 65.5885C115.61 66.7513 121.656 66.5642 127.435 66.3854H127.435L127.438 66.3853C128.234 66.3607 129.025 66.3362 129.809 66.3154ZM28.4248 64.486C29.9439 64.5404 31.3134 64.7964 32.5331 65.2537C33.2191 65.5097 33.4533 65.9861 33.2355 66.6831C32.8837 67.8299 32.4228 67.9222 31.4143 68.1241C31.2521 68.1566 31.0756 68.1919 30.8832 68.2349C23.4834 69.912 16.0155 69.7731 8.47956 67.8184C8.40003 67.7988 8.32677 67.7593 8.26675 67.7036C8.20673 67.6478 8.16191 67.5777 8.13651 67.4998C7.8806 66.7647 8.08752 66.1522 8.75726 65.6621C9.60124 65.0523 10.5432 64.7174 11.5832 64.6575C17.1971 64.3417 22.8109 64.2845 28.4248 64.486ZM36.755 72.5473C25.952 72.8032 15.4621 74.6981 5.28531 78.232C5.10184 78.2957 4.92091 78.3577 4.74292 78.4187C2.09234 79.3267 0.092737 80.0118 0.000893466 82.9202C-0.0109942 83.2918 0.0960046 83.6574 0.306205 83.9631C0.516406 84.2689 0.818738 84.4987 1.16885 84.619C2.83503 85.1962 4.60194 85.3623 6.4696 85.1172C14.9693 84.0064 23.2785 82.0844 31.397 79.3509C34.8356 78.1911 42.5458 74.8996 43.0603 70.9383C43.2999 69.0761 42.8207 68.8665 41.6228 70.3094C40.4385 71.7224 38.756 72.4983 36.755 72.5473ZM4.54206 81.5398C11.1088 79.1277 17.8361 77.5132 24.7241 76.6965C25.026 76.6597 25.3884 76.605 25.7882 76.5447L25.7893 76.5446L25.7905 76.5444L25.7919 76.5442L25.7948 76.5437L25.795 76.5437L25.7978 76.5433L25.7979 76.5432L25.798 76.5432H25.7981C27.0843 76.349 28.7544 76.0968 30.0412 76.1901C30.9451 76.2609 30.9669 76.4379 30.1066 76.721C23.8502 78.8173 17.3842 80.4917 10.7086 81.744C8.88448 82.0816 6.87798 82.2722 4.68907 82.3158C3.09912 82.3484 3.05012 82.0898 4.54206 81.5398ZM110.68 78.877C108.094 78.0439 105.519 77.1074 102.954 76.0674C102.661 75.9503 102.34 75.9219 102.031 75.9857L100.455 76.3288C100.363 76.3491 100.268 76.3425 100.181 76.3097C100.093 76.2769 100.017 76.2193 99.9614 76.144C99.906 76.0687 99.8737 75.9789 99.8685 75.8855C99.8632 75.7921 99.8853 75.6992 99.9319 75.6182C101.081 73.609 102.736 72.3893 104.898 71.9591C107.599 71.4201 110.751 71.3629 114.356 71.7876C122.66 72.7568 130.514 74.6218 137.919 77.3824C140.337 78.289 142.697 79.7592 144.78 81.262C144.839 81.3053 144.889 81.3602 144.926 81.4233C144.963 81.4863 144.987 81.5563 144.996 81.6289C145.005 81.7015 144.999 81.7752 144.979 81.8455C144.959 81.9158 144.924 81.9813 144.878 82.0379L142.828 84.5127C142.738 84.6214 142.627 84.7106 142.502 84.7752C142.377 84.8398 142.24 84.8783 142.101 84.8884C139.863 85.0844 137.797 85.049 135.902 84.7822C127.865 83.666 119.458 81.6976 110.68 78.877ZM137.128 80.891C137.174 80.6836 135.998 80.2167 133.859 79.5928C131.721 78.969 128.795 78.2394 125.725 77.5645C122.656 76.8895 119.694 76.3246 117.491 75.994C115.288 75.6633 114.025 75.594 113.979 75.8013C113.933 76.0087 115.109 76.4757 117.248 77.0995C119.386 77.7234 122.312 78.453 125.382 79.1279C128.451 79.8028 131.413 80.3677 133.616 80.6984C135.819 81.029 137.083 81.0983 137.128 80.891ZM127.072 95.1768C126.589 96.5324 120.779 95.7018 114.095 93.3216C107.41 90.9414 102.383 87.9129 102.865 86.5574C103.348 85.2018 109.158 86.0324 115.843 88.4126C122.527 90.7928 127.554 93.8213 127.072 95.1768ZM26.4207 94.0295C33.0369 91.5162 37.9849 88.3849 37.4723 87.0355C36.9597 85.6861 31.1807 86.6296 24.5645 89.1429C17.9483 91.6562 13.0003 94.7875 13.5129 96.1368C14.0255 97.4862 19.8045 96.5427 26.4207 94.0295ZM48.8188 89.6749C47.2016 90.4535 45.4402 90.9272 43.5344 91.096C36.1945 94.118 29.4018 98.1991 23.1563 103.339C19.2686 106.535 16.3064 110.429 14.27 115.019C14.2155 115.143 14.2011 115.281 14.2289 115.413C14.2568 115.545 14.3255 115.664 14.4252 115.754C16.2602 117.404 18.0488 117.989 19.7913 117.51C23.7689 116.424 27.2483 114.186 30.6378 111.45C34.5909 108.253 38.446 105.093 42.2031 101.967C43.9455 100.519 47.1145 97.3796 51.7101 92.5499C51.8986 92.3507 52.1271 92.1948 52.3799 92.0925C54.0788 91.3819 52.8781 88.6948 51.6611 88.1394C50.4251 87.584 49.4777 88.0958 48.8188 89.6749ZM43.7468 94.314C44.3621 94.2269 44.4546 94.4066 44.0245 94.8531C41.6123 97.3361 39.0967 99.6774 36.4776 101.877C31.3729 106.157 26.3498 110.2 20.8122 113.287C19.8865 113.805 18.724 114.267 17.3247 114.676C17.047 114.757 16.9762 114.67 17.1123 114.414C17.4553 113.75 17.91 113.192 18.4763 112.74C19.8697 111.634 21.2561 110.51 22.642 109.387C25.9842 106.678 29.3238 103.972 32.7532 101.518C36.0801 99.1329 39.5078 96.8215 43.0362 94.5836C43.2594 94.4366 43.4963 94.3467 43.7468 94.314ZM94.8685 90.0671C106.213 93.7751 117.403 98.5777 126.967 104.507C128.203 105.275 129.412 106.236 130.593 107.39C130.8 107.597 130.901 107.845 130.896 108.134L130.806 110.894C130.779 111.809 130.313 112.185 129.409 112.021C128.66 111.883 127.896 111.777 127.133 111.67L127.133 111.67C125.643 111.463 124.157 111.256 122.785 110.813C114.983 108.308 107.591 104.891 100.61 100.562C98.0784 98.9942 95.8268 97.0939 93.8557 94.8614C92.2767 93.0754 91.7403 91.0254 92.2467 88.7113C92.2715 88.5975 92.3285 88.4933 92.411 88.4113C92.4935 88.3292 92.598 88.2727 92.7119 88.2486C92.8257 88.2244 92.9442 88.2336 93.0529 88.2751C93.1616 88.3166 93.256 88.3887 93.3248 88.4825L94.0926 89.5035C94.2886 89.7757 94.5472 89.9636 94.8685 90.0671ZM121.536 105.757C115.257 102.092 109.369 99.2284 103.869 97.1647C103.684 97.0939 103.578 97.064 103.551 97.0749C103.218 97.1729 103.194 97.3199 103.477 97.5159C108.906 101.333 114.762 104.333 121.046 106.517C121.456 106.658 121.872 106.86 122.296 107.066C122.801 107.31 123.318 107.561 123.855 107.725C124.215 107.834 124.255 107.764 123.978 107.513C123.303 106.892 122.489 106.307 121.536 105.757ZM79.1453 107.39C80.2507 112.699 82.1837 118.917 84.9443 126.045C85.8836 128.47 88.8076 135.331 92.3115 133.012C93.7272 132.075 94.2553 130.643 93.896 128.715C91.914 118.065 88.0044 107.937 82.1674 98.332C81.6773 97.5207 81.4377 96.7094 81.4486 95.8981C81.4649 95.0051 81.6147 94.1285 81.8978 93.2682C82.3116 91.9832 81.9604 91.7191 80.8442 92.4759C77.1361 94.967 78.2796 103.265 79.1453 107.39ZM82.7472 105.952C84.2065 108.893 85.6032 112.051 86.9372 115.427C88.8158 120.164 90.0654 124.599 90.6861 128.732C90.9638 130.578 90.6643 130.678 89.7877 129.034C86.0143 121.953 83.9152 113.948 81.9795 106.238C81.3533 103.744 81.6092 103.649 82.7472 105.952ZM59.2079 135.454C59.1014 135.178 58.9954 134.905 58.8902 134.634C57.8413 131.931 56.8778 129.448 56.4473 126.486C55.3419 119.01 55.2303 111.534 56.1124 104.058C56.5779 100.162 58.334 94.8778 62.4504 93.7997C63.5721 93.5056 63.8171 93.8459 63.1855 94.8206C62.8261 95.3678 62.5648 95.9967 62.7281 96.7645C65.0423 107.785 65.7828 118.915 64.9497 130.154C64.6802 133.845 63.6837 135.03 60.1227 135.928C59.9387 135.973 59.7447 135.95 59.5766 135.862C59.4084 135.775 59.2775 135.63 59.2079 135.454ZM60.6542 128.418C60.8924 128.412 61.0907 127.253 61.2054 125.197C61.3201 123.141 61.3418 120.355 61.2658 117.454C61.2282 116.017 61.1677 114.595 61.0878 113.269C61.0079 111.943 60.9102 110.738 60.8002 109.724C60.6902 108.711 60.5701 107.907 60.4467 107.36C60.3233 106.813 60.1991 106.534 60.0812 106.537C59.843 106.543 59.6448 107.702 59.5301 109.758C59.4154 111.814 59.3936 114.599 59.4696 117.501C59.5072 118.938 59.5677 120.36 59.6476 121.686C59.7275 123.012 59.8252 124.217 59.9352 125.23C60.0452 126.244 60.1654 127.047 60.2887 127.594C60.4121 128.141 60.5363 128.421 60.6542 128.418ZM47.7302 113.041C47.9185 112.595 48.0806 112.211 48.2148 111.923C49.7884 108.531 51.1824 105.065 52.3966 101.526C52.6906 100.671 52.7179 99.9005 52.4783 99.2144C52.4033 98.9985 52.2752 98.8048 52.1059 98.6513C51.9366 98.4979 51.7316 98.3896 51.5099 98.3366C51.2882 98.2836 51.0571 98.2877 50.838 98.3483C50.6189 98.409 50.4189 98.5243 50.2567 98.6835C45.005 103.821 42.2361 111.547 40.9048 118.8C40.8715 118.983 40.8785 119.171 40.9253 119.35C40.9722 119.53 41.0577 119.697 41.176 119.84C41.2942 119.984 41.4423 120.099 41.6099 120.179C41.7776 120.259 41.9606 120.301 42.1463 120.303C44.6553 120.324 46.635 115.635 47.7302 113.041ZM101.009 119.608C96.1331 114.569 90.8731 107.063 90.0891 100.096C90.0474 99.6933 90.1677 99.2883 90.4239 98.9689C91.0283 98.2393 91.6164 98.1222 92.1881 98.6177C93.3316 99.6087 94.3934 100.902 95.3735 102.497C99.528 109.293 102.03 113.736 102.879 115.827C103.533 117.439 103.331 118.715 102.275 119.657C102.1 119.815 101.871 119.898 101.634 119.889C101.398 119.88 101.174 119.779 101.009 119.608ZM73.5535 126.519C72.0599 126.628 70.4525 121.316 69.9632 114.654C69.474 107.991 70.2881 102.501 71.7817 102.391C73.2753 102.282 74.8827 107.594 75.3719 114.257C75.8612 120.919 75.0471 126.409 73.5535 126.519Z" fill="#E5659B"/>
</svg>
