<svg width="25" height="25" viewBox="0 0 25 25" fill="none" xmlns="http://www.w3.org/2000/svg">
    <path d="M14.0295 8.85186C13.4571 9.25995 12.7566 9.5 12 9.5C10.067 9.5 8.5 7.933 8.5 6C8.5 4.067 10.067 2.5 12 2.5C13.253 2.5 14.3522 3.15842 14.9705 4.14814M6.5 20.5872H9.11029C9.45063 20.5872 9.78888 20.6277 10.1188 20.7086L12.8769 21.3789C13.4753 21.5247 14.0988 21.5388 14.7035 21.4214L17.753 20.8281C18.5585 20.6712 19.2996 20.2854 19.8803 19.7205L22.0379 17.6217C22.654 17.0234 22.654 16.0524 22.0379 15.4531C21.4832 14.9134 20.6047 14.8527 19.9771 15.3103L17.4626 17.1449C17.1025 17.4081 16.6643 17.5498 16.2137 17.5498H13.7855L15.3311 17.5498C16.2022 17.5498 16.9079 16.8633 16.9079 16.0159V15.7091C16.9079 15.0055 16.4156 14.392 15.7141 14.2219L13.3286 13.6417C12.9404 13.5476 12.5428 13.5 12.1431 13.5C11.1783 13.5 9.43189 14.2988 9.43189 14.2988L6.5 15.5249M20.5 7C20.5 8.933 18.933 10.5 17 10.5C15.067 10.5 13.5 8.933 13.5 7C13.5 5.067 15.067 3.5 17 3.5C18.933 3.5 20.5 5.067 20.5 7ZM2.5 15.1L2.5 20.9C2.5 21.4601 2.5 21.7401 2.60899 21.954C2.70487 22.1422 2.85785 22.2951 3.04601 22.391C3.25992 22.5 3.53995 22.5 4.1 22.5H4.9C5.46005 22.5 5.74008 22.5 5.95399 22.391C6.14215 22.2951 6.29513 22.1422 6.39101 21.954C6.5 21.7401 6.5 21.4601 6.5 20.9V15.1C6.5 14.5399 6.5 14.2599 6.39101 14.046C6.29513 13.8578 6.14215 13.7049 5.95399 13.609C5.74008 13.5 5.46005 13.5 4.9 13.5L4.1 13.5C3.53995 13.5 3.25992 13.5 3.04601 13.609C2.85785 13.7049 2.70487 13.8578 2.60899 14.046C2.5 14.2599 2.5 14.5399 2.5 15.1Z" stroke="white" stroke-width="2" stroke-linecap="round" stroke-linejoin="round"/>
</svg>
