<svg width="180" height="49" viewBox="0 0 180 49" fill="none" xmlns="http://www.w3.org/2000/svg">
    <path d="M15.1606 31.7605C15.7975 31.6174 16.3934 31.4809 16.9483 31.3509C18.2243 31.0787 19.4082 30.7999 20.4999 30.5145C21.0029 30.3221 21.2244 30.0328 21.1643 29.6467C21.1321 29.4399 21.0102 29.1979 20.7987 28.9204C18.8678 26.4282 16.9312 23.9439 14.9889 21.4676C14.8584 21.5306 14.729 21.6004 14.6007 21.6772C14.5344 21.7019 14.4623 21.7344 14.3845 21.775C14.5516 23.8394 14.7172 25.9394 14.8813 28.0749C14.9701 29.2758 15.0633 30.5043 15.1606 31.7605ZM29.6773 30.2731C29.5162 32.121 29.5739 33.9342 29.8509 35.7129C30.1041 37.3398 30.5412 38.9309 31.1619 40.4856C29.6424 40.7256 28.7045 41.7285 28.3481 43.4941C28.3192 43.6682 28.2412 43.843 28.1142 44.0184C27.9893 44.2077 27.8649 44.3546 27.741 44.4588C27.6191 44.577 27.5171 44.6426 27.435 44.6555C27.4076 44.6598 27.3792 44.6573 27.3496 44.6478C27.1019 44.588 26.848 44.4445 26.5882 44.2171C26.3285 43.9898 26.1429 43.7435 26.0315 43.4786C25.4979 41.8535 24.9911 40.1746 24.5111 38.4422C24.326 37.7933 24.1317 37.1317 23.9286 36.4575C23.1194 36.7548 22.3158 37.0441 21.5181 37.3255C19.3279 38.1235 17.1426 38.9066 14.962 39.6748C14.1894 39.9381 13.8643 40.4626 13.9867 41.2486C14.006 41.3727 14.0412 41.5084 14.0921 41.6558C14.174 41.9112 14.2479 42.1609 14.3139 42.4047C14.533 43.0907 14.6983 43.7922 14.8098 44.5092L14.8453 44.7366C14.9266 45.5291 14.8418 46.2912 14.5911 47.023C14.5816 47.0527 14.5427 47.073 14.4742 47.0839C14.4333 47.0903 14.3774 47.0921 14.3068 47.0891C14.1361 47.0737 13.9347 47.0418 13.7029 46.9937C13.4868 46.9572 13.2982 46.9164 13.1368 46.8712C12.7076 46.7271 12.291 46.5739 11.8871 46.4117C11.1814 46.1134 10.5308 45.8983 9.93519 45.7664C9.35542 45.646 8.83282 45.6226 8.36738 45.6961C8.07991 45.7415 7.78411 45.8236 7.47998 45.9422L7.45945 45.9455C7.391 45.9562 7.28659 45.9162 7.14622 45.8254C7.00369 45.7207 6.86373 45.5874 6.72631 45.4255C6.60472 45.2751 6.51158 45.1274 6.4469 44.9822C5.92118 43.4972 5.48336 41.991 5.13344 40.4641C5.08326 40.2318 5.041 40.0054 5.00665 39.7848C4.86498 38.8748 4.90973 38.126 5.14087 37.5385C5.419 36.8024 6.03748 36.0902 6.99631 35.402C7.20756 35.2273 7.41237 35.0114 7.61075 34.754C7.80699 34.4828 7.90269 34.2417 7.89788 34.0305C7.59798 30.8427 7.78822 27.74 8.46858 24.7223C8.64688 23.7053 8.80357 22.6846 8.93865 21.6602C9.15724 20.0011 9.3474 18.3394 9.50908 16.6751C9.64526 15.2973 9.79621 13.9243 9.9619 12.5561C10.2143 10.934 10.6472 9.97558 11.2606 9.68094C11.8854 9.37035 12.3622 9.18911 12.6907 9.13722C13.3615 9.03128 14.0713 9.13109 14.8201 9.43664C15.2284 9.62646 15.5929 9.98564 15.9136 10.5142C16.2344 11.0428 16.5003 11.58 16.7115 12.1258C17.689 14.2601 18.9133 16.1787 20.3847 17.8818C21.1818 18.8579 21.9374 19.8829 22.6517 20.9567C23.6772 22.5889 24.6464 24.2653 25.5596 25.9859C25.8592 26.5602 26.1475 27.1504 26.4242 27.7565C26.6628 28.298 26.9141 28.8305 27.1779 29.3539C27.2519 29.4695 27.357 29.5588 27.4931 29.622C27.6292 29.6853 27.7642 29.7417 27.8981 29.7911C27.9255 29.7869 27.9471 29.7905 27.9629 29.8022C28.3899 29.9325 28.8012 30.0512 29.1965 30.1583C29.3578 30.2034 29.5181 30.2417 29.6773 30.2731Z" fill="#F66E7B"/>
    <path d="M32.4246 36.7746C31.9991 36.7713 31.5646 36.6284 31.1213 36.3458C30.422 35.9017 30.0256 35.3154 29.9322 34.5869C29.756 31.7542 29.654 28.9221 29.6262 26.0907C29.6429 25.2035 29.719 24.3167 29.8545 23.4306C29.9913 22.365 30.062 21.538 30.0665 20.9498C30.0699 20.5012 30.0585 20.0624 30.0321 19.6336C30.0057 19.1948 29.9894 18.741 29.9831 18.2725C29.99 17.3652 30.2816 16.7593 30.8581 16.4548C31.2553 16.2885 31.7361 16.1924 32.3004 16.1669C33.2713 16.0549 34.1876 15.9573 35.0493 15.8743C36.4462 15.7257 37.843 15.5671 39.2398 15.3984L39.5368 15.3858C39.9922 15.3893 40.4119 15.5122 40.7959 15.7545C41.3771 16.1378 41.6644 16.7333 41.6582 17.5407C41.6542 18.0691 41.5676 18.3924 41.3985 18.5107C41.1595 18.6983 38.8263 18.9842 34.399 19.3685C34.0029 19.3953 33.8038 19.5483 33.8016 19.8274C33.8005 19.9769 33.8143 20.1117 33.8431 20.2315C33.8623 20.3014 33.8718 20.3664 33.8713 20.4261C33.895 21.2039 33.9994 22.431 34.1846 24.1073C34.6701 24.0313 35.1509 23.9304 35.627 23.8044C36.5196 23.5621 37.357 23.4441 38.1389 23.4501C38.7921 23.4552 39.4539 23.6398 40.1241 24.0039C40.1734 24.0341 40.1973 24.1241 40.1962 24.2736L40.0902 24.557C39.8961 25.333 39.6103 25.8243 39.2326 26.0308C39.0536 26.1389 38.8997 26.1926 38.7711 26.1916L38.6822 26.1759C38.3168 26.0635 37.9608 26.0059 37.6145 26.0032C36.8722 25.9974 36.1772 26.2612 35.5299 26.7945C35.3405 26.9625 34.9974 27.1792 34.5005 27.4444C34.0035 27.7097 33.7097 27.9567 33.6188 28.1853C33.4369 28.6724 33.344 29.1702 33.3401 29.6786C33.336 30.2069 33.4309 30.741 33.6248 31.2809C33.8186 31.8107 34.0389 32.1265 34.2857 32.228C34.5422 32.3298 34.8882 32.3823 35.3237 32.3857C35.9868 32.3908 36.5759 32.3655 37.091 32.3097C37.7349 32.2449 39.2397 32.2018 41.6055 32.1804C41.8727 32.1823 42.0406 32.2285 42.1092 32.3188C42.1778 32.3992 42.2116 32.5141 42.2105 32.6635C42.2097 32.7732 42.1939 32.8977 42.1631 33.037C42.0294 33.6841 41.7541 34.1056 41.3368 34.3017C40.9196 34.4978 40.4733 34.619 39.9979 34.6652C39.8889 34.6742 39.7848 34.6885 39.6857 34.7076C37.4264 35.049 35.2588 35.69 33.1829 36.6309C32.9347 36.7287 32.682 36.7766 32.4246 36.7746Z" fill="#DE6B3B"/>
    <path d="M48.3482 35.5606C48.2311 35.5414 48.1212 35.5082 48.0184 35.4612C47.6157 35.2233 47.3818 34.9021 47.3169 34.4976C47.2519 34.093 47.2545 33.6743 47.3245 33.2414C47.3857 32.615 47.4559 31.9953 47.5349 31.3821C47.7872 29.5749 47.8805 27.7268 47.815 25.8373C47.7877 25.0147 47.7848 24.1961 47.8062 23.3815C47.8447 22.7716 47.9125 22.1666 48.0095 21.5664L48.2195 20.2676C48.3165 19.6067 48.4595 18.6909 48.649 17.5201L48.0457 17.4362C47.585 17.3707 46.9097 17.3306 46.0195 17.3159C45.1262 17.3208 44.4647 17.2879 44.0348 17.2174C43.1068 17.0651 42.5208 16.7821 42.2769 16.3683C42.1574 16.1771 42.112 15.9929 42.1407 15.8157C42.1852 15.5402 42.377 15.2536 42.7159 14.9557C43.1263 14.5886 44.2315 14.4518 46.0315 14.5452L47.413 14.5597C48.7457 14.5664 50.0759 14.5877 51.4038 14.6238C52.0402 14.6575 52.6718 14.7207 53.2985 14.8134L53.8747 14.8777C54.2084 14.9223 54.5382 14.9613 54.8637 14.9945C55.7524 15.0798 56.6315 15.1937 57.501 15.3364L57.8819 15.3989C58.1897 15.4797 58.4988 15.6466 58.8088 15.8994L59.2003 16.1758C59.2362 16.2019 59.2574 16.2256 59.264 16.2468C59.2593 16.2763 59.2391 16.3084 59.2033 16.343C58.3697 17.095 57.472 17.4679 56.5104 17.4616C56.0694 17.4599 55.6252 17.4779 55.1779 17.5157C54.6509 17.5503 54.1278 17.5605 53.6086 17.546C53.2115 17.5213 52.9222 17.6051 52.7407 17.7975C52.5607 17.9801 52.4347 18.2322 52.3626 18.5536L52.0162 19.9512C51.7143 21.0734 51.4468 22.2012 51.2133 23.3345C51.1385 23.797 51.1174 24.2682 51.1501 24.7483C51.1748 25.2775 51.1624 25.6947 51.1132 25.9998C51.0766 26.226 51.0196 26.454 50.9423 26.6838C50.8651 26.9135 50.8097 27.1317 50.7763 27.3383C50.7509 27.4957 50.7359 27.6498 50.7316 27.8006C50.7354 28.3972 50.6911 28.9808 50.5988 29.5515C50.54 29.9156 50.4622 30.2715 50.3659 30.6194C50.2537 31.0655 50.1609 31.515 50.0877 31.9675L50.0137 32.425L49.8974 33.3302L49.7201 34.2405C49.6817 34.4159 49.6474 34.5972 49.6171 34.7841C49.5423 35.2466 49.4675 35.4918 49.3927 35.52L49.3635 35.5152C48.9602 35.5904 48.6217 35.6056 48.3482 35.5606Z" fill="#8AB2B7"/>
    <path d="M69.1483 36.3439C68.3083 36.206 67.7335 35.8844 67.4241 35.3792C67.1164 34.864 67.0198 34.2522 67.1344 33.5438L67.3093 32.6483C67.4222 31.4548 67.4837 30.4851 67.494 29.7394C67.5123 29.3788 67.7095 27.4769 68.086 24.0338L66.4246 26.958C65.7765 28.1749 65.0532 29.2682 64.2545 30.238C63.4287 31.3752 62.6913 32.6178 62.0421 33.9657C61.3435 35.1845 60.3822 35.7337 59.1582 35.6137L59.041 35.5945C58.6112 35.5239 58.2261 35.2385 57.8858 34.7382C57.5554 34.2396 57.2955 33.7071 57.1063 33.1407C56.8783 32.1942 56.8375 31.2684 56.984 30.3632C57.0651 29.8613 57.1243 29.3711 57.1617 28.8924C57.3487 26.1858 57.6209 23.3872 57.9781 20.4965C58.041 19.8604 58.1232 19.2275 58.2251 18.5977C58.3763 17.663 58.5707 16.7404 58.8082 15.8299C58.9513 15.3787 59.17 15.1116 59.4643 15.0285C59.7601 14.9357 60.074 14.9165 60.4062 14.971C61.471 15.1457 62.3255 15.4425 62.9697 15.8613C63.472 16.166 63.685 16.5544 63.6086 17.0266C63.5625 17.3121 63.4685 17.645 63.3267 18.0259C62.7465 19.1325 62.3491 20.3502 62.1342 21.6785C62.0196 22.3869 61.5011 24.7865 60.5786 28.8774L64.2959 23.4725C64.9923 22.5768 65.9344 21.2163 67.1221 19.391C67.6641 18.5204 68.2568 17.7692 68.9006 17.1375C69.0171 16.9748 69.2961 16.7378 69.7376 16.4264C70.2367 16.3164 70.7526 16.1334 71.2855 15.8775C71.305 15.8807 71.3425 15.8968 71.398 15.9262C72.0888 16.1809 72.636 16.5485 73.0396 17.0288C73.2899 17.4032 73.3676 17.9463 73.2725 18.6579C73.1376 20.0498 72.9799 21.4279 72.7994 22.7922C72.6204 24.1466 72.4561 25.5034 72.3065 26.8627C72.2207 27.8888 72.141 29.4666 72.0674 31.5958L71.9274 33.3909C71.8081 34.129 71.8041 34.8049 71.9152 35.4192L71.918 35.4954C71.91 35.5446 71.8476 35.6202 71.7308 35.7222C71.0153 36.3018 70.1545 36.509 69.1483 36.3439Z" fill="#397BE8"/>
    <path d="M100.013 17.02L98.8177 12.4331L96.6057 14.9124L100.013 17.02ZM84.6756 30.6025C83.3489 30.3848 82.7915 29.6216 83.0031 28.3129L83.0872 27.9238C83.545 26.6555 84.0633 25.4043 84.642 24.17L85.2046 22.9048C85.4238 22.4175 85.6567 21.9325 85.9032 21.4499L86.222 20.7809C85.0027 19.987 84.4654 19.1422 84.6103 18.2469C84.9266 16.2908 86.4214 15.4684 89.0947 15.7798C89.4729 15.1774 89.8569 14.5828 90.2466 13.9962C91.9934 11.3558 93.1812 9.09019 93.8098 7.19951C94.4882 5.17558 95.1679 3.83768 95.8489 3.18583C96.3006 2.73675 97.0244 2.55856 98.0203 2.65127C98.3803 2.68206 98.7437 2.69219 99.1103 2.68167C99.5614 2.67083 99.9989 2.70019 100.423 2.76976C100.997 2.86403 101.497 3.11573 101.922 3.52486C102.615 4.27491 103.113 5.14843 103.415 6.14541L103.619 6.83645C104.451 8.98103 104.805 11.2237 104.679 13.5645C104.633 14.2784 104.752 15.1956 105.034 16.3166C105.068 16.4495 105.16 16.5778 105.309 16.7012C105.473 16.8129 105.63 16.8812 105.781 16.9059C106.952 16.9566 108.118 16.9501 109.28 16.8861C109.706 16.857 110.103 16.8728 110.472 16.9333C111.69 17.1331 112.65 17.7926 113.353 18.912C113.482 19.1594 113.515 19.4759 113.453 19.8617C113.153 21.4528 112.311 22.1912 110.925 22.0771C109.856 22.0006 108.782 21.9587 107.702 21.9513C107.226 21.9438 106.744 21.9284 106.257 21.905L109.349 34.1633C109.169 34.1479 108.967 34.143 108.741 34.1483C108.137 34.1482 107.491 34.106 106.803 34.0212C106.012 33.8773 105.463 33.5398 105.156 33.0086C104.851 32.4636 104.632 31.8621 104.5 31.2041L104.344 30.6058C103.915 29.093 103.514 27.5778 103.142 26.0603C102.961 25.267 102.766 24.4784 102.556 23.6944C102.143 22.2551 101.294 21.4299 100.008 21.219C99.666 21.1629 99.289 21.1505 98.8768 21.1818C97.4143 21.1964 95.9527 21.1191 94.4919 20.9502L94.2424 20.9303C93.798 20.9 93.4532 20.9918 93.2081 21.2061C92.9627 21.4203 92.745 21.6816 92.5548 21.9897C92.5163 22.0542 92.3048 22.4507 91.9201 23.1796C91.5377 23.8945 91.0757 24.6247 90.534 25.3701C89.4883 26.6267 88.8319 28.0815 88.5644 29.7345L88.498 30.2751C88.4669 30.4681 88.4092 30.6071 88.3253 30.6922C88.1914 30.8258 87.9523 30.8715 87.6082 30.8291C86.7695 30.7198 85.9298 30.6598 85.0892 30.6491L84.6756 30.6025Z" fill="#397BE8"/>
    <path d="M119.769 25.0677C120.235 25.0674 120.672 25.0652 121.079 25.0612C122.01 25.0706 122.878 25.0611 123.683 25.0324C124.064 24.9768 124.263 24.8097 124.28 24.531C124.29 24.3818 124.243 24.194 124.137 23.9675C123.175 21.9284 122.207 19.8939 121.233 17.8639C121.132 17.8876 121.032 17.9161 120.93 17.9496C120.88 17.9564 120.825 17.9678 120.764 17.984C120.563 19.4496 120.356 20.9397 120.141 22.4543C120.019 23.3055 119.894 24.1766 119.769 25.0677ZM130.121 26.2966C129.723 27.5599 129.484 28.8333 129.404 30.1167C129.33 31.2908 129.39 32.4683 129.584 33.6493C128.487 33.5795 127.68 34.1323 127.159 35.3078C127.112 35.4247 127.03 35.5344 126.915 35.6368C126.799 35.7494 126.69 35.8324 126.587 35.8856C126.484 35.9491 126.403 35.9789 126.343 35.9751C126.324 35.9738 126.304 35.9676 126.285 35.9563C126.122 35.876 125.967 35.7363 125.82 35.5371C125.674 35.3381 125.583 35.1374 125.546 34.9353C125.424 33.7189 125.329 32.4692 125.261 31.1863C125.231 30.7049 125.198 30.2133 125.16 29.7114C124.55 29.7925 123.945 29.8688 123.346 29.9405C121.696 30.155 120.051 30.3599 118.413 30.5551C117.834 30.6181 117.526 30.9331 117.491 31.5003C117.485 31.5898 117.489 31.6899 117.502 31.8006C117.519 31.9915 117.532 32.1772 117.541 32.3575C117.588 32.8699 117.595 33.3848 117.563 33.9022L117.553 34.0664C117.487 34.6316 117.311 35.1498 117.024 35.6209C117.012 35.6402 116.982 35.6482 116.933 35.6451C116.903 35.6432 116.864 35.6357 116.815 35.6226C116.698 35.5853 116.563 35.5316 116.409 35.4619C116.264 35.4026 116.138 35.3448 116.033 35.2881C115.756 35.1206 115.489 34.9488 115.232 34.7726C114.786 34.4545 114.365 34.2029 113.971 34.0179C113.585 33.8434 113.224 33.7456 112.888 33.7243C112.681 33.711 112.462 33.722 112.231 33.7573L112.217 33.7563C112.167 33.7532 112.101 33.7089 112.017 33.6237C111.933 33.5285 111.856 33.4137 111.785 33.2793C111.724 33.1555 111.682 33.038 111.659 32.9267C111.521 31.8091 111.447 30.6907 111.438 29.5713C111.439 29.4015 111.444 29.2371 111.454 29.0778C111.496 28.4212 111.642 27.9061 111.894 27.5326C112.201 27.0627 112.742 26.6626 113.516 26.3324C113.69 26.2435 113.866 26.125 114.044 25.9765C114.223 25.818 114.327 25.6649 114.356 25.5169C114.637 23.2473 115.247 21.1136 116.186 19.1156C116.467 18.4343 116.733 17.7471 116.985 17.0538C117.392 15.9311 117.781 14.8022 118.15 13.667C118.457 12.7275 118.773 11.7937 119.099 10.8656C119.525 9.77391 119.974 9.17323 120.447 9.06353C120.931 8.94451 121.291 8.89254 121.528 8.90765C122.012 8.93849 122.491 9.11889 122.967 9.44883C123.222 9.64491 123.42 9.95227 123.563 10.3709C123.705 10.7895 123.808 11.2056 123.872 11.6192C124.224 13.2599 124.784 14.7888 125.548 16.206C125.953 17.011 126.322 17.8436 126.654 18.7039C127.119 20.002 127.536 21.3223 127.908 22.6646C128.029 23.1117 128.139 23.5683 128.239 24.0341C128.322 24.4489 128.415 24.8594 128.519 25.2656C128.553 25.3576 128.612 25.4364 128.698 25.5017C128.783 25.5671 128.868 25.6275 128.953 25.6829C128.974 25.6841 128.988 25.6901 128.997 25.7006C129.275 25.8582 129.543 26.0052 129.802 26.1415C129.908 26.1982 130.014 26.2499 130.121 26.2966Z" fill="#F66E7B"/>
    <path d="M143.504 31.6887C142.654 31.6345 142.05 31.3714 141.694 30.8992C141.338 30.4169 141.182 29.8176 141.227 29.1012L141.313 28.1928C141.31 26.9939 141.276 26.0228 141.214 25.2797C141.197 24.919 141.208 23.0068 141.246 19.543L139.878 22.6174C139.352 23.8924 138.739 25.052 138.038 26.0962C137.328 27.3095 136.715 28.6189 136.2 30.0246C135.624 31.3065 134.72 31.9481 133.491 31.9497L133.371 31.9421C132.937 31.9144 132.526 31.6685 132.139 31.2043C131.761 30.7406 131.451 30.2364 131.208 29.6916C130.888 28.7722 130.758 27.8548 130.815 26.9395C130.847 26.4321 130.859 25.9384 130.849 25.4583C130.771 22.7463 130.769 19.9343 130.843 17.0222C130.843 16.3829 130.864 15.7449 130.904 15.1082C130.963 14.163 131.067 13.2256 131.214 12.2961C131.312 11.8329 131.505 11.5454 131.789 11.4337C132.075 11.312 132.385 11.2619 132.721 11.2833C133.797 11.3519 134.676 11.5628 135.359 11.9159C135.888 12.1694 136.138 12.5349 136.108 13.0124C136.09 13.3011 136.029 13.6417 135.926 14.0347C135.456 15.1934 135.179 16.4444 135.094 17.7875C135.049 18.5039 134.766 20.9432 134.247 25.1055L137.42 19.3592C138.026 18.3989 138.831 16.9518 139.836 15.018C140.289 14.098 140.806 13.2919 141.385 12.5996C141.486 12.4262 141.74 12.1627 142.149 11.8092C142.635 11.6503 143.13 11.4172 143.636 11.1098C143.656 11.111 143.695 11.1235 143.753 11.1472C144.465 11.3324 145.046 11.6441 145.493 12.0822C145.779 12.4301 145.909 12.9628 145.884 13.6804C145.886 15.0789 145.863 16.466 145.817 17.8415C145.771 19.207 145.739 20.5735 145.722 21.941C145.737 22.9708 145.812 24.5488 145.946 26.675L145.981 28.4752C145.935 29.2215 145.997 29.8947 146.167 30.4949L146.177 30.5705C146.175 30.6202 146.12 30.7017 146.013 30.8148C145.357 31.4622 144.521 31.7535 143.504 31.6887Z" fill="#323663"/>
    <path d="M161.453 37.5465C161.185 37.5295 160.972 37.301 160.811 36.8612C160.609 36.299 160.421 35.7227 160.25 35.1324C159.42 32.2327 157.922 28.7759 155.755 24.762C155.693 24.6482 155.501 24.3813 155.18 23.9612L154.847 24.0449C154.773 24.4397 154.694 24.8293 154.61 25.2136C154.275 26.7803 154.092 27.7877 154.064 28.2354C154.029 28.7826 154.074 29.3298 154.198 29.8771L154.211 29.9079C154.265 30.1611 154.284 30.4071 154.27 30.6458C154.226 31.3323 153.878 31.8945 153.226 32.3324C152.883 32.5903 152.668 32.9312 152.582 33.3552C152.139 35.0351 151.024 35.818 149.236 35.7041C148.939 35.6852 148.64 35.6312 148.338 35.5422C147.744 35.3943 147.212 35.1557 146.747 34.8264C146.282 34.497 145.986 33.9986 145.86 33.3314C145.841 33.1503 145.838 32.9704 145.849 32.7913C145.873 32.4032 145.962 32.0193 146.114 31.6395C147.562 27.6862 149.291 23.8557 151.299 20.1478C151.502 19.7612 151.68 19.3631 151.835 18.9534C152.297 17.7542 152.904 16.774 153.657 16.0128C154.047 15.6282 154.653 15.462 155.473 15.5143C155.966 15.5457 156.539 15.6571 157.192 15.8486C158.329 16.6802 159.077 17.7267 159.435 18.9881C159.586 19.5772 159.712 20.1745 159.813 20.7803C159.963 21.7088 160.184 22.6119 160.476 23.4896C161.199 25.4036 162.054 27.2612 163.041 29.0621C163.838 30.4414 164.355 31.9128 164.594 33.4763L164.591 33.7757C164.58 33.935 164.554 34.108 164.513 34.2952C164.471 34.4824 164.445 34.6755 164.431 34.8744L164.428 35.1739C164.415 35.3629 164.353 35.4938 164.239 35.5664C164.127 35.6291 163.985 35.67 163.816 35.6893C163.647 35.6985 163.5 35.7489 163.374 35.8409C163.164 36.0373 162.967 36.2594 162.782 36.5075C162.241 37.2221 161.798 37.5684 161.453 37.5465Z" fill="#DE6B3B"/>
    <path d="M168.93 25.2683C169.335 25.2942 170.757 24.8503 173.194 23.9369C173.368 23.8481 173.462 23.7041 173.474 23.5052C173.491 23.2365 173.432 22.2689 173.3 20.6022L173.239 19.6695L172.88 19.6915C172.653 19.687 172.467 19.7251 172.323 19.8058C170.678 20.8897 169.423 22.3231 168.557 24.1058C168.478 24.2606 168.433 24.4375 168.419 24.6365C168.407 24.8355 168.436 25.0021 168.507 25.1365C168.572 25.2106 168.688 25.253 168.856 25.2637L168.93 25.2683ZM166.817 36.8808C166.53 36.8626 166.151 36.7484 165.679 36.5386C165.543 36.48 165.403 36.4261 165.257 36.3769C164.054 35.9506 163.441 35.5219 163.419 35.091L163.412 34.731C163.431 34.4126 163.549 34.1204 163.765 33.8543C164.064 33.5138 164.358 33.168 164.648 32.8169C165.816 31.413 167.089 30.0306 168.464 28.6699L169.274 27.8525L168.338 27.3583C167.638 26.9641 166.923 26.5889 166.192 26.2326C165.194 25.6995 164.611 25.1031 164.445 24.4432C164.279 23.7733 164.206 23.2692 164.227 22.9309C164.266 22.3141 164.473 21.7129 164.846 21.1275C165.99 19.4922 167.228 17.9329 168.561 16.4495C169.095 15.8543 169.901 15.5909 170.977 15.6595C171.866 15.7161 172.682 15.898 173.426 16.2052C173.929 16.417 174.442 16.6146 174.966 16.7978C176.135 17.1518 177.22 17.7055 178.224 18.4588C178.8 18.9349 179.134 19.3609 179.23 19.7365C179.325 20.1122 179.364 20.4392 179.347 20.7178C179.326 21.0362 179.256 21.3863 179.132 21.768C178.671 23.277 178.317 24.8076 178.07 26.3602C177.767 28.3388 177.509 30.3201 177.295 32.3042L177.22 33.2584C177.169 34.0742 177.154 34.6178 177.177 34.8889C177.205 35.2303 177.211 35.5403 177.193 35.8189C177.166 36.2567 177.062 36.5746 176.88 36.7729C176.636 37.037 176.158 37.1464 175.446 37.1011C175.032 37.0746 174.619 37.0035 174.211 36.8874L173.916 36.8237C173.244 36.6411 172.928 36.2214 172.969 35.5647L172.997 35.3716C173.03 35.0041 173.069 34.4573 173.115 33.731L173.192 32.5072C173.192 32.3374 173.179 32.1369 173.155 31.9056C173.132 31.7843 173.117 31.6384 173.108 31.468C171.142 32.7512 169.509 34.2155 168.205 35.8605C167.762 36.4415 167.45 36.7613 167.267 36.8196C167.086 36.868 166.935 36.8884 166.817 36.8808Z" fill="#E9972B"/>
</svg>
