<svg width="187" height="41" viewBox="0 0 187 41" fill="none" xmlns="http://www.w3.org/2000/svg">
    <g clip-path="url(#clip0_19_331)">
        <path fill-rule="evenodd" clip-rule="evenodd" d="M19.87 5.067L22.507 0.5L29.983 4.817L27.347 9.383C26.884 10.184 27.577 11.158 28.485 10.983L33.537 10.008L35.172 18.485L30.12 19.459C21.948 21.035 15.709 12.275 19.87 5.067Z" fill="#3A724F"/>
        <path fill-rule="evenodd" clip-rule="evenodd" d="M15.302 35.933L12.665 40.5L5.188 36.184L7.825 31.617C8.288 30.816 7.595 29.842 6.686 30.017L1.635 30.991L0 22.515L5.052 21.541C13.224 19.965 19.462 28.725 15.302 35.933Z" fill="#DC8E43"/>
        <path fill-rule="evenodd" clip-rule="evenodd" d="M15.53 5.067L12.894 0.5L5.41698 4.817L8.05398 9.383C8.51598 10.184 7.82398 11.158 6.91498 10.983L1.86298 10.008L0.22998 18.485L5.28098 19.459C13.454 21.035 19.693 12.275 15.531 5.067H15.53Z" fill="#14424C"/>
        <path fill-rule="evenodd" clip-rule="evenodd" d="M19.65 35.933L22.285 40.5L29.762 36.184L27.125 31.617C26.663 30.816 27.355 29.842 28.264 30.017L33.315 30.991L34.95 22.515L29.898 21.541C21.726 19.965 15.488 28.725 19.648 35.933H19.65Z" fill="#C85D1B"/>
        <path d="M163.114 30.653V22.153C163.114 20.975 163.385 19.918 163.927 18.983C164.488 18.029 165.283 17.281 166.312 16.738C167.341 16.196 168.566 15.925 169.987 15.925C170.65 15.9185 171.311 16.0033 171.951 16.177C172.55 16.327 173.092 16.542 173.578 16.822C174.083 17.084 174.513 17.402 174.869 17.776H174.925C175.306 17.3967 175.741 17.0752 176.215 16.822C176.736 16.5352 177.293 16.3183 177.871 16.177C178.521 16.0046 179.191 15.9198 179.863 15.925C181.284 15.925 182.509 16.195 183.538 16.738C184.566 17.281 185.361 18.028 185.922 18.983C186.484 19.918 186.764 20.974 186.764 22.153V30.653H182.387V22.293C182.387 21.826 182.266 21.405 182.023 21.031C181.8 20.6398 181.481 20.3116 181.097 20.077C180.692 19.8303 180.224 19.7038 179.75 19.712C179.245 19.712 178.787 19.834 178.376 20.077C177.991 20.3113 177.673 20.6396 177.45 21.031C177.223 21.4124 177.106 21.8493 177.113 22.293V30.653H172.765V22.293C172.765 21.826 172.643 21.405 172.4 21.031C172.172 20.6342 171.843 20.3049 171.446 20.077C171.041 19.8303 170.573 19.7038 170.099 19.712C169.594 19.712 169.136 19.834 168.725 20.077C168.34 20.3113 168.022 20.6396 167.799 21.031C167.573 21.4126 167.456 21.8493 167.462 22.293V30.653H163.114ZM153.603 30.99C152.126 30.99 150.844 30.71 149.76 30.148C148.694 29.568 147.871 28.792 147.291 27.82C146.711 26.829 146.421 25.734 146.421 24.537V16.261H150.77V24.425C150.77 24.93 150.891 25.398 151.134 25.828C151.377 26.239 151.705 26.576 152.116 26.838C152.546 27.081 153.033 27.203 153.575 27.203C154.099 27.203 154.566 27.081 154.978 26.838C155.408 26.576 155.745 26.239 155.988 25.828C156.231 25.398 156.353 24.93 156.353 24.425V16.261H160.701V24.537C160.701 25.734 160.42 26.829 159.859 27.82C159.298 28.792 158.485 29.569 157.419 30.148C156.371 30.709 155.099 30.99 153.603 30.99ZM132.414 30.653V27.203H139.344C139.531 27.203 139.699 27.165 139.849 27.09C139.998 26.997 140.12 26.875 140.213 26.726C140.305 26.5786 140.353 26.4085 140.353 26.235C140.353 26.0615 140.305 25.8914 140.213 25.744C140.126 25.5998 139.999 25.483 139.849 25.407C139.697 25.3131 139.522 25.2645 139.344 25.267H136.819C135.883 25.267 135.032 25.117 134.266 24.818C133.538 24.5166 132.914 24.0096 132.47 23.359C132.04 22.686 131.825 21.816 131.825 20.75C131.825 19.927 132.021 19.179 132.414 18.506C132.823 17.8351 133.391 17.2758 134.069 16.878C134.776 16.4676 135.58 16.2545 136.398 16.261H143.327V19.74H137.071C136.823 19.735 136.582 19.8256 136.398 19.993C136.316 20.0732 136.251 20.1692 136.208 20.2754C136.164 20.3815 136.143 20.4953 136.145 20.61C136.145 20.872 136.23 21.096 136.398 21.283C136.582 21.4504 136.823 21.541 137.071 21.536H139.54C140.587 21.536 141.485 21.695 142.233 22.012C143 22.312 143.589 22.798 144.001 23.472C144.431 24.145 144.646 25.014 144.646 26.08C144.646 26.922 144.431 27.689 144.001 28.38C143.593 29.0688 143.013 29.6395 142.317 30.036C141.625 30.448 140.84 30.653 139.961 30.653H132.414ZM122.94 15.925C124.156 15.925 125.231 16.121 126.166 16.514C127.084 16.8642 127.91 17.4208 128.579 18.141C129.261 18.8466 129.787 19.6879 130.122 20.61C130.477 21.545 130.655 22.583 130.655 23.724C130.655 25.145 130.356 26.408 129.757 27.511C129.204 28.5681 128.369 29.4516 127.345 30.064C126.316 30.681 125.119 30.99 123.754 30.99C123.174 30.99 122.622 30.915 122.098 30.766C121.602 30.6201 121.129 30.4025 120.696 30.12C120.287 29.8428 119.935 29.4906 119.658 29.082H119.573V36.742H115.225V23.723C115.225 22.133 115.543 20.758 116.179 19.599C116.796 18.4582 117.731 17.5219 118.872 16.905C120.032 16.251 121.388 15.924 122.94 15.924V15.925ZM122.94 19.684C122.267 19.684 121.678 19.852 121.173 20.189C120.686 20.507 120.312 20.956 120.05 21.536C119.789 22.096 119.658 22.733 119.658 23.443C119.658 24.154 119.789 24.79 120.05 25.351C120.312 25.912 120.686 26.361 121.173 26.698C121.678 27.016 122.267 27.175 122.94 27.175C123.613 27.175 124.193 27.015 124.679 26.698C125.168 26.3586 125.556 25.8931 125.802 25.351C126.082 24.79 126.222 24.154 126.222 23.443C126.222 22.733 126.082 22.097 125.802 21.536C125.54 20.956 125.166 20.506 124.679 20.189C124.193 19.852 123.613 19.684 122.94 19.684ZM108.617 30.653V16.261H112.994V30.653H108.617ZM110.805 14.634C110.113 14.634 109.515 14.382 109.01 13.877C108.505 13.372 108.252 12.773 108.252 12.081C108.252 11.389 108.505 10.791 109.01 10.286C109.515 9.762 110.113 9.5 110.805 9.5C111.497 9.5 112.096 9.762 112.601 10.286C113.106 10.791 113.358 11.389 113.358 12.081C113.358 12.773 113.106 13.371 112.601 13.877C112.096 14.382 111.497 14.634 110.805 14.634ZM99.105 30.99C97.628 30.99 96.3 30.663 95.121 30.008C93.9644 29.374 92.9966 28.4448 92.316 27.315C91.643 26.174 91.306 24.893 91.306 23.471C91.306 22.031 91.643 20.75 92.316 19.628C92.9966 18.4982 93.9644 17.569 95.121 16.935C96.3 16.261 97.628 15.925 99.105 15.925C100.583 15.925 101.901 16.261 103.061 16.935C104.213 17.5646 105.173 18.4954 105.838 19.628C106.53 20.75 106.876 22.031 106.876 23.471C106.876 24.893 106.53 26.174 105.838 27.315C105.173 28.4476 104.213 29.3784 103.061 30.008C101.883 30.663 100.564 30.99 99.105 30.99ZM99.105 27.203C99.797 27.203 100.396 27.034 100.901 26.698C101.406 26.3614 101.813 25.8965 102.079 25.351C102.36 24.79 102.5 24.154 102.5 23.443C102.5 22.751 102.36 22.125 102.079 21.563C101.813 21.0179 101.406 20.5533 100.901 20.217C100.396 19.88 99.797 19.712 99.105 19.712C98.413 19.712 97.805 19.88 97.282 20.217C96.7766 20.5537 96.3697 21.0185 96.103 21.564C95.8172 22.149 95.6734 22.793 95.683 23.444C95.683 24.154 95.823 24.79 96.103 25.351C96.3698 25.8964 96.7767 26.3613 97.282 26.698C97.805 27.034 98.413 27.203 99.105 27.203ZM77.174 36.349V32.617H84.355C84.636 32.617 84.87 32.524 85.057 32.337C85.1482 32.2564 85.2205 32.1568 85.2689 32.0452C85.3173 31.9335 85.3405 31.8126 85.337 31.691V28.521H85.253C84.8978 28.9341 84.4927 29.3016 84.047 29.615C83.635 29.915 83.167 30.139 82.644 30.289C82.0874 30.4454 81.5111 30.5208 80.933 30.513C79.661 30.513 78.52 30.213 77.51 29.615C76.519 28.998 75.733 28.147 75.153 27.062C74.593 25.978 74.312 24.743 74.312 23.359C74.312 21.994 74.602 20.75 75.182 19.628C75.78 18.506 76.65 17.608 77.791 16.935C78.931 16.261 80.325 15.925 81.971 15.925C83.542 15.925 84.898 16.252 86.039 16.907C87.1848 17.5289 88.1215 18.4751 88.732 19.627C89.368 20.787 89.686 22.153 89.686 23.724V32.14C89.686 33.43 89.303 34.45 88.536 35.198C87.788 35.965 86.75 36.348 85.422 36.348L77.174 36.349ZM81.999 26.866C82.672 26.866 83.252 26.716 83.739 26.417C84.2195 26.105 84.6068 25.669 84.86 25.155C85.126 24.614 85.2606 24.0178 85.253 23.415C85.253 22.742 85.123 22.125 84.861 21.564C84.599 21.003 84.225 20.563 83.738 20.245C83.252 19.908 82.672 19.74 81.998 19.74C81.344 19.74 80.764 19.899 80.259 20.217C79.773 20.535 79.399 20.965 79.137 21.507C78.876 22.05 78.745 22.657 78.745 23.331C78.745 23.986 78.875 24.584 79.137 25.127C79.399 25.65 79.773 26.071 80.26 26.389C80.764 26.707 81.344 26.866 81.999 26.866ZM65.473 30.99C63.996 30.99 62.668 30.663 61.49 30.008C60.333 29.3742 59.3648 28.445 58.684 27.315C58.011 26.174 57.674 24.893 57.674 23.471C57.674 22.031 58.011 20.75 58.684 19.628C59.3648 18.498 60.333 17.5688 61.49 16.935C62.668 16.261 63.996 15.925 65.473 15.925C66.951 15.925 68.269 16.261 69.429 16.935C70.5814 17.5647 71.5412 18.4955 72.206 19.628C72.898 20.75 73.244 22.031 73.244 23.471C73.244 24.893 72.898 26.174 72.206 27.315C71.5412 28.4475 70.5814 29.3783 69.429 30.008C68.251 30.663 66.932 30.99 65.473 30.99ZM65.473 27.203C66.165 27.203 66.763 27.034 67.269 26.698C67.7739 26.3611 68.1804 25.8963 68.447 25.351C68.727 24.79 68.867 24.154 68.867 23.443C68.867 22.751 68.727 22.125 68.447 21.563C68.1803 21.018 67.7738 20.5535 67.269 20.217C66.764 19.88 66.165 19.712 65.473 19.712C64.781 19.712 64.173 19.88 63.65 20.217C63.1446 20.5537 62.7377 21.0185 62.471 21.564C62.1853 22.149 62.0414 22.793 62.051 23.444C62.051 24.154 62.191 24.79 62.471 25.351C62.7378 25.8964 63.1447 26.3613 63.65 26.698C64.173 27.034 64.781 27.203 65.473 27.203ZM51.547 30.653C50.331 30.653 49.265 30.383 48.349 29.84C47.4581 29.3234 46.7219 28.5776 46.217 27.68C45.712 26.782 45.459 25.79 45.459 24.706V11.015H50.172V25.042C50.172 25.492 50.332 25.884 50.649 26.221C50.967 26.557 51.359 26.726 51.827 26.726H57.017V30.653H51.547Z" fill="#14424C"/>
    </g>
    <defs>
        <clipPath id="clip0_19_331">
            <rect width="187" height="40" fill="white" transform="translate(0 0.5)"/>
        </clipPath>
    </defs>
</svg>
