<svg width="327" height="128" viewBox="0 0 327 128" fill="none" xmlns="http://www.w3.org/2000/svg">
    <path d="M228.335 83.3627C228.322 83.3658 228.308 83.3717 228.297 83.3799C228.285 83.3881 228.276 83.3985 228.268 83.4105C228.261 83.4226 228.256 83.436 228.253 83.4499C228.251 83.4639 228.252 83.4782 228.255 83.492L228.317 83.8209C228.342 83.9703 228.429 84.0327 228.578 84.0079C242.4 81.7376 256.207 79.205 270 76.41C274.186 75.5637 277.944 75.787 281.275 77.0799C281.742 77.263 282.053 77.5878 282.21 78.0542L282.609 79.2867C282.757 79.754 283.064 80.0704 283.528 80.2359C283.993 80.4013 284.342 80.6953 284.574 81.1179C284.906 81.7178 284.73 82.0318 284.044 82.0598C283.554 82.0848 283.119 82.2383 282.737 82.5203C282.507 82.6922 282.334 82.9295 282.24 83.201C282.146 83.4725 282.135 83.7655 282.209 84.0418C282.283 84.3181 282.439 84.5648 282.656 84.7496C282.873 84.9343 283.141 85.0486 283.424 85.0774C287.423 85.5033 290.922 86.6979 293.921 88.661C294.031 88.7336 294.117 88.8356 294.17 88.9552C294.224 89.0748 294.243 89.2071 294.224 89.3368C294.205 89.4665 294.151 89.5884 294.066 89.6882C293.981 89.788 293.869 89.8617 293.744 89.9009C289.066 91.3361 284.43 93.0485 279.619 94.2429C256.069 100.094 232.326 105.013 208.39 108.999C170.705 115.266 135.175 120.133 101.8 123.599C85.3163 125.311 67.433 126.522 48.1505 127.233C44.3288 127.383 40.4816 127.04 36.6443 126.789C36.2924 126.764 35.958 126.627 35.6901 126.4C35.4222 126.172 35.2347 125.866 35.155 125.525C34.5922 123.169 34.4442 120.761 34.7111 118.299C35.0325 115.34 35.1149 113.122 34.9583 111.644C34.7248 109.442 34.4881 107.208 34.248 104.943C34.2293 104.788 34.2465 104.63 34.2984 104.481C34.3502 104.333 34.4354 104.198 34.5475 104.087C34.6596 103.976 34.7958 103.891 34.9457 103.839C35.0957 103.787 35.2556 103.769 35.4135 103.787C36.5809 103.913 37.708 103.745 38.7949 103.281C39.3502 103.034 39.3777 102.745 38.8774 102.413C38.4153 102.104 37.9098 101.934 37.3608 101.903C37.0753 101.88 36.7999 101.784 36.56 101.624C36.3202 101.464 36.1238 101.245 35.9891 100.988C35.7419 100.514 35.65 100.027 35.7135 99.5281C35.7856 98.8585 35.4898 98.5142 34.8258 98.4951C27.7687 98.2502 19.9749 97.9762 11.4446 97.6728C10.0714 97.6305 8.58767 97.43 6.99314 97.0712C6.65243 96.9936 6.33932 96.8257 6.08704 96.5855C5.83475 96.3453 5.65271 96.0416 5.56033 95.7068C4.53799 92.1386 3.89267 88.6244 3.62424 85.1641C3.33796 81.4508 1.89197 78.3166 1.45972 74.6188C1.36368 73.797 1.50699 73.0393 1.88968 72.3458C2.11475 71.9373 2.1035 71.5359 1.85598 71.1417L0.895299 69.6736C0.606764 69.2301 0.552138 68.7573 0.731504 68.2552C1.52509 65.9527 3.38881 64.7577 6.32258 64.6703C7.64212 64.6288 7.70105 64.3408 6.49939 63.8062C5.72015 63.4594 4.84956 63.3907 3.88772 63.6C3.13541 63.7603 2.86821 63.4755 3.08605 62.7457C3.71242 60.68 2.97421 59.7922 4.56379 57.8256C5.40301 56.7974 6.24759 55.7775 7.09754 54.766C7.37526 54.4324 7.44297 54.0585 7.30064 53.6442C7.09439 53.0488 7.17946 52.5434 7.55584 52.1277C7.81173 51.8412 8.13966 51.6857 8.53963 51.6612C10.7112 51.5562 12.9004 51.1542 15.1074 50.4551C15.2323 50.4176 15.3407 50.3405 15.4166 50.2354C15.4925 50.1302 15.5317 50.0025 15.5284 49.8715C15.5251 49.7404 15.4794 49.6131 15.3982 49.5084C15.317 49.4037 15.2047 49.3274 15.0779 49.2908L8.04124 47.3397C7.84224 47.2843 7.65868 47.184 7.50464 47.0464C7.35063 46.9088 7.2303 46.7376 7.15294 46.5461C7.07556 46.3546 7.04328 46.1478 7.05851 45.9418C7.07375 45.7359 7.13605 45.5362 7.24076 45.3581C7.67974 44.6049 8.30558 44.306 9.11821 44.4614C9.5471 44.5411 9.95749 44.4887 10.3494 44.304C19.3895 39.9643 30.8652 38.8552 40.5854 38.1468C45.2288 37.8156 49.8657 37.3822 54.4963 36.8466C60.7272 36.1325 67.0121 35.8017 73.1052 34.9276C84.6122 33.2695 96.5032 31.7317 108.778 30.3142C111.368 30.0218 113.972 29.5265 116.591 28.8285C118.889 28.2271 121.696 27.9564 125.012 28.0163C125.325 28.0189 125.458 28.1748 125.411 28.484C125.388 28.6116 125.348 28.7366 125.289 28.8591C125.238 28.963 125.152 29.0392 125.032 29.0877C124.441 29.3382 123.939 29.709 123.526 30.2C123.154 30.6599 123.263 30.8854 123.853 30.8766C126.256 30.8455 128.391 30.5207 130.257 29.9024C130.681 29.768 131.112 29.7403 131.55 29.8191C133.618 30.1724 135.55 29.8289 137.345 28.7888C137.732 28.5599 138.148 28.4756 138.593 28.5358L140.541 28.8123C141.104 28.8957 141.114 29.0333 140.571 29.2251L138.413 30.004C138.328 30.0333 138.254 30.0888 138.204 30.1619C138.153 30.2351 138.129 30.322 138.134 30.4093L138.144 30.7571C138.149 30.8887 138.185 31.0171 138.25 31.1318C138.315 31.2464 138.406 31.344 138.516 31.4163C138.626 31.4886 138.752 31.5336 138.883 31.5476C139.014 31.5616 139.146 31.5441 139.269 31.4966C141.082 30.7945 143.043 30.3496 145.152 30.1618C145.374 30.1472 145.519 30.2437 145.585 30.4513L145.847 31.1482C145.975 31.5103 145.845 31.6806 145.458 31.659C143.302 31.5656 141.11 31.9455 138.884 32.7988C136.768 33.6 134.657 33.1797 132.437 33.1199C131.97 33.1067 131.58 33.2644 131.266 33.5929C131.121 33.7513 131.006 33.929 130.92 34.126C130.754 34.5014 130.461 34.6891 130.04 34.6889C127.488 34.6642 125.019 35.087 122.634 35.9571C121.307 36.4377 119.943 36.7343 118.541 36.8471C118.277 36.8683 118.021 36.9518 117.794 37.0909C117.568 37.2301 117.378 37.4208 117.24 37.6476C117.102 37.8743 117.019 38.1306 116.999 38.3954C116.979 38.6602 117.022 38.926 117.124 39.1711C117.648 40.4037 118.495 41.0475 119.663 41.1025C119.764 41.105 119.864 41.0873 119.957 41.0503C120.051 41.0133 120.135 40.9579 120.206 40.8875C120.276 40.8172 120.331 40.7333 120.367 40.6411C120.403 40.549 120.42 40.4505 120.416 40.3518C120.382 38.772 121.173 37.6193 122.786 36.8936C123.231 36.6944 123.578 36.8052 123.828 37.2259L125.578 40.1937C125.861 40.6647 125.813 41.0947 125.433 41.4838C124.771 42.1534 124.007 42.2433 123.141 41.7537C122.752 41.5444 122.355 41.5193 121.952 41.6784C121.618 41.8211 121.362 42.0674 121.185 42.4172C121.148 42.4922 121.133 42.576 121.141 42.6592C121.149 42.7423 121.179 42.8217 121.229 42.8886C121.279 42.9554 121.347 43.0071 121.425 43.038C121.502 43.0689 121.587 43.0778 121.669 43.0636L129.978 41.8206C130.11 41.8065 130.182 41.7273 130.194 41.5829L130.212 40.9907C130.231 40.6666 130.081 40.5214 129.763 40.5552L127.382 40.7539C127.216 40.7661 127.05 40.7289 126.906 40.6468C126.761 40.5647 126.644 40.4415 126.569 40.2928C126.494 40.1441 126.465 39.9765 126.486 39.8114C126.507 39.6463 126.576 39.491 126.685 39.3652L129.809 35.8003C130.153 35.4149 130.566 35.3085 131.05 35.4809C132.177 35.8982 133.296 35.9539 134.409 35.6481C134.621 35.589 134.847 35.6125 135.042 35.7139C135.237 35.8153 135.386 35.987 135.46 36.1942L136.752 39.7741C136.916 40.2308 137.238 40.4382 137.717 40.3964C139.597 40.2418 141.244 39.7093 142.66 38.7989C143.028 38.5631 143.398 38.5507 143.769 38.7618C144.975 39.4212 145.96 39.044 146.722 37.6303C146.944 37.1953 147.273 37.0933 147.709 37.3244C148.011 37.4713 148.219 37.6998 148.332 38.0098C148.4 38.1934 148.529 38.3485 148.698 38.4499C148.867 38.5514 149.067 38.5932 149.264 38.5685L149.924 38.4717C150.48 38.3949 150.611 38.1171 150.319 37.6382C149.963 37.0676 149.518 36.5825 148.984 36.1829C148.478 35.7982 148.534 35.5284 149.153 35.3733C149.964 35.18 150.773 34.7945 151.58 34.217C151.928 33.9565 152.314 33.8843 152.738 34.0003C152.912 34.0444 153.087 34.0841 153.26 34.1194C153.708 34.2061 154.026 34.0471 154.216 33.6424C154.815 32.3713 155.738 32.1392 156.987 32.9461C157.564 33.3233 158.017 33.2126 158.347 32.614C158.783 31.8343 159.461 31.3106 160.381 31.0432C160.736 30.934 161.084 30.924 161.425 31.0131C162.494 31.3113 162.475 31.51 161.367 31.6096C159.72 31.7663 158.879 32.9468 158.844 35.1511C158.828 35.9221 159.14 36.0858 159.782 35.6421C159.898 35.5582 160.019 35.4694 160.143 35.3757C160.366 35.2 160.531 34.9857 160.638 34.7328C161.117 33.5996 161.97 33.1648 163.197 33.4283C163.274 33.4412 163.353 33.4378 163.427 33.4184C163.501 33.3989 163.57 33.3638 163.628 33.3156C163.833 33.1418 163.906 32.9461 163.847 32.7287C163.769 32.4955 163.848 32.3574 164.085 32.3144C165.541 32.0437 166.054 31.1843 165.623 29.7361C165.444 29.1379 165.654 28.9233 166.253 29.0924C167.019 29.3153 167.798 29.3178 168.588 29.0997C171.596 28.271 174.435 28.0506 177.106 28.4383C177.228 28.4569 177.342 28.5082 177.437 28.5867C177.532 28.6652 177.603 28.7678 177.643 28.8831C177.683 28.9984 177.69 29.1219 177.664 29.2398C177.637 29.3578 177.578 29.4656 177.492 29.5514C176.944 30.1194 176.683 30.7777 176.709 31.5264C176.723 31.999 176.97 32.2188 177.45 32.1859C181.021 31.9504 184.282 31.4123 187.235 30.5716C195.544 28.1969 203.707 26.3431 211.724 25.0102C213.131 24.7806 214.255 24.2857 215.095 23.5257C215.217 23.4197 215.369 23.3559 215.53 23.3437C215.691 23.3315 215.851 23.3716 215.987 23.458C216.226 23.6026 216.425 23.7917 216.584 24.0254C216.849 24.4177 217.217 24.5487 217.686 24.4185C219.557 23.9249 221.399 23.7117 223.213 23.7788C224.816 23.837 225.906 22.7285 227.388 22.3971C236.087 20.4148 244.571 18.0395 253.291 16.5113C256.515 15.9548 259.9 15.2248 263.445 14.3212C269.614 12.7683 275.976 11.9059 282.343 10.0637C285.121 9.26825 287.897 8.58039 290.671 8.00005C298.05 6.46648 306.802 4.05373 316.928 0.761827C317.024 0.732358 317.128 0.742732 317.219 0.790768C317.309 0.838804 317.378 0.920705 317.412 1.01916L317.532 1.39554C317.616 1.68183 317.514 1.86257 317.227 1.93775C314.099 2.68527 311.598 4.39965 308.464 5.46984C299.952 8.37596 291.794 10.9135 283.991 13.0825C263.091 18.8762 237.533 25.4499 207.317 32.8037C203.357 33.7602 199.671 34.5132 196.258 35.0628C195.607 35.1676 195.073 35.439 194.654 35.877C194.283 36.2563 194.36 36.4762 194.885 36.5368C198.115 36.8788 200.064 35.1425 202.977 34.6458C208.786 33.6633 213.902 32.6512 218.327 31.6097C235.288 27.6469 252.356 23.4715 269.532 19.0835C276.559 17.2785 283.348 16.7602 290.4 14.4292C291.851 13.9444 293.083 14.2163 294.096 15.2451C294.426 15.5768 294.8 15.6401 295.216 15.4349C297.081 14.5484 299.136 14.1025 301.381 14.0971C301.558 14.0986 301.731 14.0506 301.88 13.9587C302.029 13.8669 302.149 13.735 302.225 13.5783C302.469 13.0962 302.817 13.0012 303.268 13.2933C303.682 13.5625 303.647 13.7451 303.165 13.8409C300.117 14.4503 297.871 15.6232 296.427 17.3596C296.156 17.6746 295.813 17.8585 295.398 17.9114C293.764 18.1026 292.29 18.7106 290.976 19.7355C290.497 20.1083 289.957 20.2461 289.356 20.1487C286.144 19.6394 283.358 20.5699 280.997 22.9402C280.844 23.0924 280.755 23.2989 280.751 23.5167C280.747 23.7346 280.826 23.9471 280.973 24.1101C281.76 24.9481 281.993 25.8805 281.673 26.9074C281.519 27.3978 281.693 27.5672 282.196 27.4155C283.079 27.1341 283.908 26.818 284.685 26.4673C285.232 26.2215 285.229 25.9804 284.676 25.7438L284.14 25.5053C283.794 25.3631 283.638 25.1069 283.67 24.7367C283.712 24.2938 284.022 24.0105 284.6 23.8867C286.245 23.5423 287.673 23.8114 288.885 24.6937C289.252 24.95 289.66 25.041 290.108 24.9666C291.013 24.8081 291.866 24.5477 292.669 24.1853C293.352 23.8803 293.329 23.6592 292.598 23.5219C292.342 23.4685 292.073 23.4568 291.79 23.4868C290.088 23.6403 289.926 23.2058 291.302 22.1832C292.024 21.6505 292.907 21.3288 293.951 21.2181C294.597 21.1497 294.9 21.4395 294.862 22.0877L294.817 22.8036C294.769 23.5333 295.044 23.683 295.643 23.2528C297.048 22.254 298.523 21.8606 300.066 22.0727C300.584 22.1431 301.076 22.0596 301.543 21.8223C303.411 20.8817 305.25 20.5482 307.059 20.8216C307.541 20.8957 307.983 20.8042 308.385 20.5468L311.186 18.747C311.385 18.6247 311.606 18.5442 311.835 18.5107C312.065 18.4771 312.298 18.4911 312.521 18.5519C314.751 19.1653 316.959 19.2399 319.146 18.7754C319.68 18.6651 320.195 18.709 320.69 18.907C322.289 19.5605 323.813 19.381 325.262 18.3686C325.31 18.3351 325.366 18.3129 325.424 18.3039C325.482 18.2948 325.541 18.2992 325.597 18.3165C325.653 18.3338 325.705 18.3637 325.748 18.4039C325.791 18.4441 325.824 18.4935 325.845 18.5484L326.025 18.9855C326.116 19.2222 326.12 19.484 326.039 19.727C325.957 19.9701 325.794 20.1799 325.576 20.3212C322.299 22.3952 318.595 24.2056 314.465 25.7526C314.316 25.8089 314.181 25.897 314.07 26.0107C313.959 26.1244 313.874 26.261 313.821 26.4109C313.768 26.5609 313.748 26.7207 313.763 26.879C313.778 27.0374 313.827 27.1906 313.907 27.328C314.894 29.0393 314.61 30.4113 313.055 31.4438C312.144 32.0413 312.231 32.2736 313.317 32.1406L315.224 31.8982C315.798 31.8284 316.146 32.0733 316.268 32.6329C317.669 39.019 320.421 44.0945 320.904 50.9269C320.915 51.1062 320.864 51.2834 320.759 51.4272C320.654 51.571 320.502 51.672 320.33 51.7123C319.014 52.0397 317.722 52.5121 316.455 53.1295C309.411 56.5597 301.776 59.0867 294.813 60.9922C275.953 66.1178 256.689 70.2129 237.571 75.6746C237.396 75.7199 237.327 75.8257 237.363 75.9919L237.364 76.0052C237.411 76.197 237.532 76.2781 237.725 76.2486C251.426 73.8481 264.968 70.8873 278.353 67.3663C280.572 66.7821 282.551 67.4714 284.61 68.1655C284.738 68.2069 284.85 68.2849 284.933 68.3899C285.017 68.4948 285.067 68.622 285.078 68.7555C285.09 68.889 285.061 69.0228 284.997 69.1403C284.932 69.2577 284.835 69.3535 284.716 69.4157C283.007 70.3393 281.379 71.0128 279.831 71.4363C263.179 76.0283 246.013 80.0038 228.335 83.3627ZM217.33 85.4563C217.333 85.4789 217.458 85.4837 217.698 85.4706C217.938 85.4575 218.288 85.4267 218.728 85.3799C219.168 85.3332 219.69 85.2714 220.263 85.198C220.837 85.1247 221.45 85.0414 222.07 84.9527C223.32 84.7736 224.517 84.5837 225.396 84.4248C226.276 84.266 226.767 84.1512 226.76 84.1056C226.757 84.083 226.632 84.0782 226.392 84.0913C226.152 84.1044 225.802 84.1352 225.362 84.182C224.922 84.2287 224.4 84.2905 223.827 84.3639C223.253 84.4372 222.64 84.5205 222.02 84.6092C220.77 84.7883 219.573 84.9782 218.694 85.1371C217.814 85.2959 217.323 85.4107 217.33 85.4563ZM279.273 26.5446C279.153 26.4203 278.998 26.3371 278.828 26.3068C278.658 26.2766 278.484 26.3009 278.329 26.3763C277.714 26.6562 277.45 27.0777 277.537 27.641C277.627 28.2398 277.964 28.4635 278.547 28.3122L279.709 28.0012C280.231 27.8654 280.306 27.6025 279.934 27.2126L279.273 26.5446ZM272.793 27.4462C273.173 27.7369 273.47 28.0945 273.685 28.519C273.878 28.9011 274.148 28.9619 274.496 28.7014L275.403 28.0149C275.768 27.7436 275.853 27.4081 275.658 27.0082C273.67 22.8045 268.003 26.8134 265.223 28.0608C265.172 28.0841 265.131 28.1197 265.101 28.1677C265.008 28.3116 265.016 28.4674 265.123 28.6349C265.175 28.7156 265.251 28.7782 265.341 28.8143C265.432 28.8503 265.532 28.858 265.628 28.8364L271.82 27.2541C271.983 27.2117 272.155 27.2069 272.323 27.2402C272.491 27.2734 272.652 27.3437 272.793 27.4462ZM111.461 44.7362C113.099 45.1708 114.146 45.176 114.602 44.752C115.8 43.6411 115.571 43.0436 113.916 42.9596C113.043 42.9091 112.213 43.0105 111.426 43.2639C109.782 43.7959 109.794 44.2867 111.461 44.7362ZM92.9152 46.3111C92.9178 46.3864 92.9805 46.4588 93.0996 46.5242C93.2186 46.5896 93.3918 46.6467 93.6092 46.6923C93.8265 46.7378 94.0839 46.7709 94.3664 46.7896C94.649 46.8084 94.9513 46.8124 95.256 46.8015C95.5607 46.7906 95.862 46.7649 96.1425 46.726C96.423 46.6871 96.6772 46.6357 96.8908 46.5748C97.1043 46.5138 97.273 46.4445 97.3871 46.3707C97.5012 46.297 97.5585 46.2203 97.5558 46.1449C97.5532 46.0696 97.4905 45.9972 97.3714 45.9318C97.2523 45.8664 97.0792 45.8093 96.8618 45.7638C96.6444 45.7182 96.3871 45.6852 96.1045 45.6664C95.822 45.6477 95.5197 45.6437 95.215 45.6546C94.9103 45.6655 94.609 45.6911 94.3285 45.73C94.048 45.7689 93.7938 45.8203 93.5802 45.8813C93.3666 45.9422 93.198 46.0116 93.0839 46.0853C92.9698 46.1591 92.9125 46.2358 92.9152 46.3111ZM104.687 42.0997C106.62 40.9286 109.056 40.3171 111.993 40.2651C113.494 40.2403 114.328 39.5883 114.496 38.3091C114.517 38.1391 114.49 37.9663 114.417 37.8112C114.344 37.6562 114.228 37.5254 114.084 37.4346C113.94 37.3438 113.774 37.2967 113.604 37.299C113.435 37.3013 113.271 37.3528 113.13 37.4475C110.906 38.9089 108.583 39.7813 106.162 40.0648C105.712 40.1214 105.31 40.2938 104.956 40.5818C103.987 41.4001 103.104 42.2719 102.308 43.1972C102.062 43.4917 101.937 43.8359 101.934 44.2298C101.931 44.7043 102.109 45.079 102.469 45.3539C102.986 45.7553 103.3 45.6371 103.411 44.9991L103.666 43.6034C103.775 42.9477 104.116 42.4465 104.687 42.0997ZM131.266 40.1677C131.263 40.3131 131.305 40.4582 131.39 40.5946C131.476 40.731 131.603 40.8561 131.764 40.9628C131.925 41.0694 132.117 41.1555 132.329 41.2162C132.542 41.2769 132.77 41.3109 133.001 41.3164C133.232 41.3218 133.462 41.2986 133.677 41.248C133.892 41.1973 134.088 41.1204 134.254 41.0214C134.42 40.9224 134.552 40.8034 134.644 40.6712C134.736 40.5389 134.785 40.396 134.788 40.2506C134.791 40.1052 134.749 39.9602 134.664 39.8238C134.579 39.6873 134.452 39.5622 134.291 39.4556C134.13 39.3489 133.937 39.2628 133.725 39.2021C133.513 39.1414 133.284 39.1074 133.053 39.102C132.822 39.0965 132.592 39.1198 132.377 39.1704C132.162 39.221 131.966 39.298 131.8 39.3969C131.634 39.4959 131.502 39.6149 131.41 39.7472C131.319 39.8794 131.27 40.0223 131.266 40.1677ZM279.539 24.2487C279.603 24.2598 279.66 24.2537 279.711 24.2304C280.301 23.9711 280.276 23.8172 279.636 23.7688C278.877 23.6972 278.189 23.7478 277.572 23.9205C277.381 23.9765 277.314 24.1 277.37 24.2908C277.401 24.4216 277.458 24.5364 277.54 24.635C277.767 24.9152 278.043 24.9843 278.367 24.8425C278.623 24.726 278.853 24.5719 279.056 24.3804C279.196 24.2583 279.356 24.2144 279.539 24.2487ZM154.936 35.4983C154.223 35.3503 153.878 35.5971 153.901 36.2387C153.915 36.6219 154.116 36.8331 154.505 36.8724C154.876 36.9135 155.155 36.8079 155.343 36.5554C155.412 36.4649 155.456 36.3585 155.471 36.2462C155.487 36.1339 155.474 36.0195 155.433 35.9137C155.393 35.8079 155.326 35.7143 155.239 35.6416C155.152 35.5689 155.047 35.5196 154.936 35.4983ZM169.427 33.7206C171.402 33.9585 173.32 33.7776 175.18 33.1779C175.245 33.1566 175.303 33.1188 175.35 33.0683C175.396 33.0179 175.428 32.9567 175.443 32.8909C175.458 32.8252 175.455 32.7573 175.434 32.6941C175.414 32.631 175.376 32.575 175.326 32.5317C173.085 30.5508 171.098 30.7883 169.363 33.2443C169.286 33.3548 169.18 33.442 169.057 33.4964C168.934 33.5507 168.798 33.57 168.665 33.5523C168.531 33.5346 168.405 33.4805 168.3 33.3959C168.195 33.3113 168.116 33.1995 168.07 33.0728C167.898 32.6259 167.617 32.2531 167.227 31.9545C166.867 31.6796 166.597 31.7485 166.417 32.1612C166.104 32.8384 165.528 33.2259 164.689 33.3239C164.345 33.3693 164.177 33.5615 164.186 33.9005L164.196 34.2482C164.193 34.3023 164.218 34.3309 164.273 34.3341C165.64 34.4933 166.97 34.3344 168.261 33.8576C168.64 33.7191 169.029 33.6734 169.427 33.7206ZM128.001 32.2885C127.522 32.071 127.013 31.9996 126.476 32.0745C125.823 32.1616 125.785 32.3579 126.363 32.6634C126.856 32.9242 127.39 33.145 127.963 33.3257C128.213 33.4065 128.433 33.4145 128.623 33.3497C128.934 33.2451 129.104 33.0304 129.132 32.7054C129.148 32.6052 129.113 32.5284 129.027 32.475C128.874 32.3838 128.696 32.349 128.493 32.3706C128.324 32.3795 128.16 32.3522 128.001 32.2885ZM107.443 32.6307C107.369 32.8183 107.462 33.0628 107.7 33.3103C107.939 33.5578 108.304 33.7881 108.715 33.9506C108.919 34.0311 109.128 34.0925 109.33 34.1312C109.533 34.17 109.724 34.1854 109.894 34.1766C110.064 34.1678 110.209 34.135 110.321 34.0799C110.433 34.0249 110.509 33.9488 110.546 33.8558C110.62 33.6682 110.528 33.4238 110.289 33.1762C110.051 32.9287 109.686 32.6984 109.274 32.5359C109.07 32.4554 108.861 32.394 108.659 32.3553C108.457 32.3165 108.265 32.301 108.095 32.3098C107.925 32.3186 107.78 32.3515 107.668 32.4066C107.556 32.4616 107.48 32.5378 107.443 32.6307ZM119.854 31.0052C119.193 30.3329 118.512 30.3648 117.812 31.101C117.735 31.1779 117.683 31.2751 117.661 31.3809C117.639 31.4868 117.648 31.5967 117.687 31.6975C117.726 31.7983 117.794 31.8857 117.881 31.9491C117.969 32.0125 118.073 32.0492 118.181 32.0548C118.829 32.0934 119.499 32 120.191 31.7746C120.623 31.6304 120.651 31.4351 120.276 31.1886C120.151 31.1034 120.01 31.0423 119.854 31.0052Z" fill="#E5659B"/>
</svg>
