<svg width="103" height="96" viewBox="0 0 103 96" fill="none" xmlns="http://www.w3.org/2000/svg">
    <g clip-path="url(#clip0_23_441)">
        <path fill-rule="evenodd" clip-rule="evenodd" d="M18.6833 36.4038C18.4728 35.7267 18.2921 35.0535 18.1426 34.3759C17.9179 33.3597 17.8308 32.3169 17.6614 31.2933C17.5892 30.859 17.3833 29.7293 17.3822 29.563C17.3803 28.1123 18.5008 27.7387 18.8319 27.6543C18.9915 27.6089 20.6371 27.1961 21.2483 29.0005C21.997 31.2065 22.4473 33.4686 22.593 35.7244C23.2151 37.5749 24.0955 39.3824 25.1518 40.9839C29.3544 47.3531 35.6962 47.1693 42.4618 46.1908C43.5015 46.0343 44.4772 46.7348 44.6717 47.763C44.8674 48.799 44.214 49.8071 43.1895 50.0408C39.4526 50.9189 33.1453 54.8642 31.2502 58.3396C30.8539 59.0671 30.7871 60.7016 30.6251 62.3171C30.3972 64.5601 30.0673 66.793 29.4942 67.7902C29.4088 67.9445 28.3342 69.5487 27.9842 69.8101C27.1421 70.4315 26.3752 70.2418 25.9259 70.033C25.4767 69.8242 24.9381 69.3658 24.6344 68.5268C24.3168 67.65 24.2312 65.7745 24.1471 65.3815C23.8417 63.956 23.1714 61.1686 22.255 58.8188C21.7611 57.5536 21.26 56.3924 20.6198 55.8685C18.2501 53.9293 14.9852 54.704 12.248 55.4468C11.9332 55.529 11.6195 55.6191 11.3056 55.7012C10.2164 56.1894 9.04552 56.6015 7.79248 56.9216C5.9006 57.4074 5.34544 55.6827 5.31251 55.5682C5.24194 55.3161 4.92976 54.0105 6.30717 53.285C6.45786 53.2091 7.58949 52.7944 8.02507 52.6324C8.63213 52.4076 9.2504 52.213 9.87206 52.0259C16.1592 49.0982 18.9486 42.8853 18.6833 36.4038ZM21.8931 43.1769C25.0637 47.9652 29.1585 49.9326 33.767 50.451L33.7663 50.4511C31.1804 52.2836 28.8955 54.448 27.8014 56.4592C27.3859 57.221 27.1073 58.6779 26.8977 60.2999C26.4726 58.8747 25.9547 57.3669 25.3685 56.0984C24.7009 54.6505 23.9076 53.4813 23.1105 52.828C21.5717 51.5693 19.7767 50.9954 17.9096 50.8436C19.8203 48.6268 21.142 46.006 21.8931 43.1769Z" fill="white"/>
    </g>
    <g clip-path="url(#clip1_23_441)">
        <path fill-rule="evenodd" clip-rule="evenodd" d="M58.287 9.06582C58.367 8.61425 58.463 8.17382 58.5782 7.74017C58.7507 7.08961 59.0102 6.46458 59.2167 5.82613C59.304 5.5552 59.521 4.84497 59.5698 4.74907C59.9992 3.91496 60.7539 4.03287 60.9692 4.08263C61.0743 4.10392 62.1424 4.35516 61.958 5.57329C61.7335 7.063 61.3208 8.49642 60.7351 9.83581C60.5433 11.0837 60.5127 12.3835 60.6443 13.6172C61.1687 18.524 64.8671 20.3006 69.0449 21.7464C69.6887 21.965 70.0414 22.6571 69.848 23.3056C69.653 23.959 68.9784 24.3443 68.3204 24.1745C65.9126 23.5699 61.1176 23.9649 58.9973 25.3993C58.5537 25.6997 58.0302 26.619 57.4576 27.4991C56.661 28.7202 55.8088 29.9053 55.1835 30.3082C55.0886 30.3715 53.9951 30.9743 53.7164 31.0206C53.0482 31.1277 52.6638 30.7911 52.4676 30.5378C52.2715 30.2845 52.0981 29.8613 52.1726 29.2891C52.2503 28.691 52.7578 27.588 52.8261 27.3373C53.0737 26.4276 53.5158 24.627 53.6867 23.0049C53.7784 22.1314 53.8351 21.3155 53.6228 20.8245C52.8367 19.007 50.7309 18.483 48.9377 18.0975C48.7324 18.0513 48.5255 18.0099 48.3207 17.9639C47.55 17.9212 46.7549 17.8105 45.94 17.6225C44.7087 17.3401 44.9016 16.1844 44.9167 16.1089C44.951 15.9431 45.1591 15.1002 46.1658 15.0922C46.2749 15.0933 47.0482 15.1909 47.3466 15.2271C47.7621 15.2781 48.1751 15.3498 48.5878 15.4267C53.0692 15.6105 56.5158 12.8687 58.287 9.06582ZM58.1211 13.9101C58.5217 17.6023 60.2906 19.9481 62.7847 21.6137L62.7842 21.6135C60.7546 21.8989 58.7994 22.4644 57.5738 23.2953C57.109 23.6097 56.5165 24.3641 55.9147 25.2339C56.0934 24.2888 56.2434 23.2688 56.283 22.3659C56.3291 21.3358 56.2204 20.4287 55.9562 19.8167C55.4457 18.6368 54.5846 17.7743 53.5569 17.1329C55.3127 16.4263 56.8499 15.3127 58.1211 13.9101Z" fill="white"/>
    </g>
    <g clip-path="url(#clip2_23_441)">
        <path fill-rule="evenodd" clip-rule="evenodd" d="M66.232 62.3574C65.7975 61.9422 65.3868 61.5177 64.9973 61.0772C64.4129 60.4166 63.9195 59.6798 63.373 58.9909C63.1409 58.6988 62.5237 57.9464 62.4544 57.8236C61.8563 56.7495 62.533 56.0119 62.7436 55.8131C62.8432 55.7139 63.8928 54.7312 65.0877 55.8168C66.5498 57.1435 67.8138 58.6345 68.8495 60.246C70.0716 61.3613 71.4673 62.3386 72.9086 63.0908C78.6421 66.0817 83.2656 63.3373 87.8763 59.8297C88.5823 59.2862 89.5934 59.404 90.1604 60.0858C90.7314 60.773 90.6619 61.7887 89.9989 62.3832C87.5911 64.5708 84.5402 70.0882 84.5653 73.4427C84.5709 74.1448 85.1936 75.3833 85.738 76.6471C86.4916 78.4027 87.1655 80.1929 87.151 81.1676C87.1511 81.317 87.0147 82.9477 86.8629 83.2853C86.4945 84.092 85.8482 84.2669 85.4294 84.2969C85.0106 84.327 84.4231 84.2088 83.8529 83.7121C83.257 83.193 82.4223 81.8385 82.1983 81.5819C81.3858 80.6513 79.7427 78.8615 78.0972 77.4973C77.2109 76.7629 76.362 76.1087 75.6722 75.9837C73.1188 75.5215 71.0182 77.4382 69.2955 79.1144C69.0961 79.3048 68.9007 79.5005 68.7018 79.6905C68.0956 80.5002 67.3975 81.287 66.6007 82.0396C65.3986 83.1777 64.2779 82.128 64.2065 82.0567C64.0505 81.8989 63.2822 81.0599 64.0045 79.9559C64.0849 79.8377 64.7528 79.065 65.009 78.7658C65.3663 78.3495 65.7444 77.9511 66.1281 77.5567C69.5826 72.8017 69.0943 67.0509 66.232 62.3574ZM71.396 66.056C75.7146 68.3 79.5579 68.0737 83.1859 66.5624L83.1853 66.5628C82.0229 68.9841 81.22 71.5276 81.2365 73.4678C81.242 74.2032 81.6347 75.3973 82.1465 76.6853C81.2454 75.8041 80.2415 74.8999 79.2854 74.201C78.1952 73.4028 77.1266 72.8627 76.2672 72.7065C74.6094 72.4067 73.0434 72.7197 71.5974 73.3751C72.1015 70.9467 72.0029 68.4612 71.396 66.056Z" fill="white"/>
    </g>
    <defs>
        <clipPath id="clip0_23_441">
            <rect width="44" height="44" fill="white" transform="translate(0.249756 30.1472) rotate(-7.70271)"/>
        </clipPath>
        <clipPath id="clip1_23_441">
            <rect width="28.4548" height="28.4548" fill="white" transform="translate(49.5525) rotate(19.6154)"/>
        </clipPath>
        <clipPath id="clip2_23_441">
            <rect width="37.2882" height="37.2882" fill="white" transform="translate(50 65.3027) rotate(-36.7352)"/>
        </clipPath>
    </defs>
</svg>
