<svg width="220" height="71" viewBox="0 0 220 71" fill="none" xmlns="http://www.w3.org/2000/svg">
    <path d="M181.829 59.7881C182.829 59.6581 183.499 59.0381 184.469 58.8081C188.442 57.8748 191.882 58.5081 194.789 60.7081C195.075 60.9214 195.332 60.8881 195.559 60.6081C196.072 59.9481 196.749 59.6981 197.589 59.8581C197.942 59.9314 198.219 60.1181 198.419 60.4181L198.729 60.9181C198.915 61.2048 199.175 61.3281 199.509 61.2881C200.615 61.1748 201.512 61.5348 202.199 62.3681C202.392 62.6081 202.622 62.8014 202.889 62.9481L205.529 64.4181C205.579 64.4445 205.62 64.4844 205.648 64.5333C205.677 64.5821 205.69 64.638 205.688 64.6944C205.686 64.7508 205.668 64.8055 205.637 64.8521C205.605 64.8987 205.561 64.9355 205.509 64.9581C203.959 65.6281 202.529 66.1781 200.799 66.0681C193.365 65.5548 186.045 65.0381 178.839 64.5181C178.259 64.4781 177.685 64.3548 177.119 64.1481C176.819 64.0415 176.515 64.0248 176.209 64.0981C175.389 64.2848 174.472 64.2981 173.459 64.1381C171.029 63.7481 169.259 63.9881 166.979 64.0781C164.989 64.1581 162.409 63.5581 160.049 63.6981C156.849 63.8881 153.589 63.5481 150.389 63.3881C148.799 63.3081 145.939 62.7681 143.559 63.0381C142.425 63.1648 141.319 63.2314 140.239 63.2381C128.972 63.3114 117.772 63.4681 106.639 63.7081C88.1321 64.1081 70.4388 64.6048 53.5588 65.1981C44.5788 65.5114 31.9455 66.4914 15.6588 68.1381C13.1121 68.3914 8.36547 69.1481 1.4188 70.4081C0.385468 70.5948 -1.27453 70.6481 -3.5612 70.5681C-3.90787 70.5614 -4.0812 70.3848 -4.0812 70.0381C-4.0812 69.0514 -3.8012 68.0848 -3.2412 67.1381C-1.76787 64.6181 -0.367865 62.1948 0.958801 59.8681C1.9588 58.1215 3.5288 57.0648 5.6688 56.6981C13.2155 55.3914 19.8821 54.6214 25.6688 54.3881C28.3688 54.2781 31.9288 53.3481 35.2488 53.3081C36.8888 53.2881 38.1555 53.2214 39.0488 53.1081C43.6788 52.5281 47.6888 51.9881 52.8788 51.7081C57.2721 51.4681 61.6155 50.8414 65.9088 49.8281C66.9488 49.5814 67.9321 50.0448 68.8588 51.2181C69.1388 51.5714 69.4088 51.5648 69.6688 51.1981C71.2288 49.0181 76.2388 49.3081 78.8688 49.3181C80.4955 49.3181 82.0155 49.1981 83.4288 48.9581C87.8755 48.1981 92.3721 47.5848 96.9188 47.1181C97.5788 47.0481 98.4588 47.2981 99.2488 47.2081C106.359 46.4581 112.849 46.7681 120.629 45.2781C121.915 45.0248 123.309 45.1848 124.809 45.7581C125.155 45.8848 125.505 45.8815 125.859 45.7481C127.309 45.1881 128.639 44.6381 130.289 44.7481C132.979 44.9281 135.699 45.1881 138.289 44.1981C139.615 43.6848 140.979 43.5114 142.379 43.6781C147.819 44.3181 152.569 43.0081 157.879 42.7081C164.032 42.3681 170.245 41.8848 176.519 41.2581C176.612 41.2448 176.659 41.1914 176.659 41.0981C176.659 41.0714 176.652 41.0414 176.639 41.0081C176.619 40.9548 176.572 40.9248 176.499 40.9181C168.609 40.0581 160.589 39.9981 152.659 39.7181C147.132 39.5181 141.155 39.4414 134.729 39.4881C111.089 39.6381 86.7288 39.2981 63.8088 41.6881C58.3755 42.2548 53.5155 42.6814 49.2288 42.9681C36.8488 43.8181 24.2788 45.2181 11.8088 45.6281C7.73547 45.7614 3.66214 45.8781 -0.411198 45.9781C-2.5812 46.0281 -6.2112 46.5881 -9.2212 46.2081C-9.5612 46.1681 -9.81453 45.9981 -9.9812 45.6981C-10.5879 44.6048 -10.1779 43.3948 -8.7512 42.0681C-7.82453 41.2081 -7.9912 40.7981 -9.2512 40.8381C-14.5012 40.9981 -20.7412 42.4481 -25.4012 39.6381C-26.0679 39.2381 -26.1779 38.7181 -25.7312 38.0781C-24.3779 36.1448 -23.3345 33.8948 -22.6012 31.3281C-21.9479 29.0414 -20.5279 27.5414 -18.3412 26.8281C-12.9612 25.0681 -5.75786 23.4814 3.2688 22.0681C21.8021 19.1614 36.7655 17.0881 48.1588 15.8481C58.2721 14.7481 67.6121 13.7148 76.1788 12.7481C86.4921 11.5948 97.5721 10.3981 109.419 9.15811C118.319 8.23145 127.569 7.35477 137.169 6.52811C137.295 6.51477 137.355 6.44478 137.349 6.31812L137.339 6.02811C137.339 6.01477 137.332 6.0081 137.319 6.0081C127.429 5.8981 117.159 6.51811 107.749 6.65811C102.029 6.73811 96.4188 6.98811 90.6388 6.80811C79.9788 6.49811 70.8088 7.26811 59.4488 7.91811C53.7288 8.24477 47.6321 8.75811 41.1588 9.45811C38.3988 9.75811 35.0988 9.50811 32.1588 9.81812C26.5921 10.4181 21.2055 10.9314 15.9988 11.3581C13.9588 11.5281 9.0388 12.3781 5.5488 12.4081C4.10213 12.4214 2.6788 12.5048 1.2788 12.6581C-3.3812 13.1914 -8.05787 13.7914 -12.7512 14.4581C-13.1579 14.5181 -13.4545 14.3614 -13.6412 13.9881L-13.7512 13.7681C-13.7736 13.722 -13.7856 13.6716 -13.7864 13.6204C-13.7872 13.5692 -13.7767 13.5184 -13.7557 13.4717C-13.7348 13.425 -13.7038 13.3834 -13.665 13.35C-13.6262 13.3165 -13.5805 13.292 -13.5312 13.2781C2.76213 9.29146 18.2855 6.57811 33.0388 5.13811C53.1521 3.17811 72.6121 1.92811 91.4188 1.38811C95.9988 1.25477 99.7755 1.1081 102.749 0.948105C106.775 0.741438 110.552 0.631436 114.079 0.618103C125.379 0.584769 136.932 0.401448 148.739 0.068115C153.165 -0.0585517 157.939 -0.00855778 163.059 0.218109C168.025 0.444776 172.809 0.584774 177.409 0.638107C179.102 0.658107 180.722 1.04143 182.269 1.7881C182.381 1.84289 182.478 1.92347 182.553 2.02322C182.628 2.12298 182.679 2.23907 182.7 2.362C182.722 2.48493 182.714 2.6112 182.677 2.73045C182.64 2.84971 182.576 2.95857 182.489 3.04811C180.659 4.90811 178.759 6.2481 176.099 6.7581C165.429 8.7981 154.459 9.1381 144.039 10.6481C137.112 11.6481 130.515 12.5314 124.249 13.2981C117.949 14.0714 110.419 15.1214 101.659 16.4481C90.9788 18.0581 80.2788 19.0481 69.6988 20.8981C63.0888 22.0581 56.6688 22.3181 50.2788 23.5281C46.8188 24.1815 43.4021 24.7814 40.0288 25.3281C36.2888 25.9281 32.5888 27.1881 28.8488 27.8181C23.7088 28.6781 17.3888 29.4581 9.8888 30.1581C9.68214 30.1781 9.62214 30.2814 9.7088 30.4681L9.8788 30.8381C9.93214 30.9581 10.0255 31.0081 10.1588 30.9881C20.3788 29.8281 30.2088 28.6048 39.6488 27.3181C51.5788 25.6981 64.8788 24.3981 77.8588 22.5581C85.1588 21.5181 92.4988 21.2381 99.7388 20.3681C102.452 20.0481 105.392 19.7781 108.559 19.5581C126.565 18.3448 142.259 17.7281 155.639 17.7081C161.272 17.7014 167.119 18.2114 173.179 19.2381C173.431 19.2809 173.668 19.3891 173.866 19.5522C174.064 19.7153 174.217 19.9276 174.309 20.1681C174.622 20.9681 174.469 21.6514 173.849 22.2181C172.149 23.7648 170.572 25.4214 169.119 27.1881C169.031 27.2957 168.975 27.4262 168.958 27.5642C168.94 27.7022 168.963 27.842 169.021 27.9671C169.08 28.0922 169.173 28.1973 169.29 28.2701C169.406 28.3429 169.541 28.3804 169.679 28.3781C171.879 28.3648 174.032 28.6248 176.139 29.1581C178.952 29.8714 180.999 30.2948 182.279 30.4281C185.329 30.7481 188.729 30.7481 191.659 31.7181C192.909 32.1281 194.609 31.8181 195.989 31.9481C201.389 32.4614 206.775 33.0514 212.149 33.7181C214.875 34.0581 217.235 35.1414 219.229 36.9681C219.307 37.0407 219.371 37.1282 219.415 37.2254C219.46 37.3227 219.485 37.4278 219.489 37.5348C219.492 37.6417 219.475 37.7483 219.437 37.8484C219.399 37.9486 219.342 38.0402 219.269 38.1181C218.359 39.0881 217.139 39.3481 216.109 40.2281C212.182 43.5814 207.529 46.1314 202.149 47.8781C194.702 50.2914 188.172 51.8381 182.559 52.5181C179.192 52.9314 176.252 53.6481 173.739 54.6681C173.492 54.7721 173.219 54.7966 172.959 54.7381L171.899 54.4981C171.525 54.4115 171.232 54.5314 171.019 54.8581C170.699 55.3581 170.549 55.9281 170.569 56.5681C170.582 56.8948 170.745 57.1014 171.059 57.1881C171.879 57.4281 172.025 57.9048 171.499 58.6181C171.199 59.0248 171.292 59.3081 171.779 59.4681C172.145 59.5881 172.449 59.4748 172.689 59.1281C173.102 58.5214 173.559 57.9481 174.059 57.4081C174.272 57.1814 174.535 57.1014 174.849 57.1681C175.049 57.2081 175.212 57.3214 175.339 57.5081C175.383 57.5677 175.414 57.636 175.429 57.7084C175.445 57.7808 175.445 57.8557 175.429 57.9281L175.309 58.6181C175.255 58.8981 175.372 59.0448 175.659 59.0581C177.699 59.1648 179.692 59.0581 181.639 58.7381C181.832 58.7048 182.012 58.7381 182.179 58.8381C182.532 59.0515 182.505 59.1648 182.099 59.1781C181.879 59.1848 181.715 59.2748 181.609 59.4481C181.449 59.7148 181.522 59.8281 181.829 59.7881ZM165.829 58.9281L169.189 56.4381C169.207 56.4244 169.222 56.4073 169.233 56.3878C169.244 56.3682 169.251 56.3467 169.254 56.3244C169.257 56.3021 169.255 56.2794 169.249 56.2577C169.243 56.236 169.233 56.2158 169.219 56.1981L169.189 56.1581C168.97 55.8659 168.579 55.7196 168.103 55.7515C167.627 55.7834 167.104 55.9907 166.649 56.3281L166.459 56.4681C166.003 56.8054 165.653 57.2454 165.484 57.6916C165.315 58.1378 165.342 58.5537 165.559 58.8481L165.589 58.8881C165.602 58.9067 165.618 58.9225 165.637 58.9346C165.657 58.9468 165.678 58.9549 165.7 58.9587C165.723 58.9624 165.746 58.9616 165.768 58.9564C165.79 58.9511 165.811 58.9415 165.829 58.9281ZM191.967 60.0002C191.906 59.9248 191.821 59.8692 191.719 59.8366C191.617 59.804 191.499 59.795 191.371 59.8102C191.243 59.8254 191.109 59.8645 190.975 59.9251C190.841 59.9858 190.711 60.0669 190.592 60.1638C190.473 60.2607 190.367 60.3715 190.28 60.4899C190.193 60.6083 190.128 60.732 190.087 60.8538C190.046 60.9757 190.03 61.0933 190.041 61.2001C190.052 61.3068 190.09 61.4006 190.151 61.476C190.212 61.5514 190.296 61.607 190.399 61.6396C190.501 61.6722 190.619 61.6812 190.747 61.666C190.874 61.6508 191.009 61.6117 191.143 61.5511C191.276 61.4904 191.406 61.4093 191.525 61.3124C191.645 61.2155 191.751 61.1047 191.837 60.9863C191.924 60.8679 191.99 60.7443 192.031 60.6224C192.072 60.5006 192.087 60.3829 192.076 60.2761C192.065 60.1694 192.028 60.0756 191.967 60.0002Z" fill="#46C9F3"/>
</svg>
