<svg width="143" height="135" viewBox="0 0 143 135" fill="none" xmlns="http://www.w3.org/2000/svg">
    <path d="M65.7402 1.55352C65.9216 4.31512 65.8813 7.09687 65.6192 9.83831C65.5789 10.181 65.5587 10.5237 65.4983 10.8462C65.4781 11.0075 65.458 11.1687 65.4378 11.33C65.4177 11.5719 65.4983 10.947 65.4378 11.3098C65.4177 11.4106 65.4176 11.5316 65.3975 11.6323C65.2967 12.3177 65.1758 13.0031 65.0548 13.6884C64.7928 15.0591 64.4501 16.4299 64.047 17.7603C63.8454 18.3852 63.6438 19.01 63.4221 19.6349C63.3011 19.9373 63.2003 20.2397 63.0592 20.542C63.039 20.6025 62.9584 20.7033 62.9584 20.7839C62.9584 20.5824 63.0794 20.5219 62.9987 20.663C62.9181 20.8243 62.8576 20.9855 62.777 21.1468C62.2932 22.2151 61.7086 23.2432 61.0636 24.2107C60.9225 24.4325 60.7612 24.6542 60.6 24.8759C60.5194 24.9969 60.4185 25.1178 60.3379 25.2388C60.2976 25.2791 60.2572 25.3395 60.2371 25.3799C60.4387 25.017 60.3177 25.2791 60.2573 25.3597C59.8944 25.8233 59.4913 26.287 59.0882 26.7304C58.685 27.1538 58.2818 27.5569 57.8383 27.9601C57.6368 28.1415 57.4151 28.3229 57.1934 28.5043C57.0926 28.5849 56.9918 28.6656 56.891 28.7462C56.7297 28.8672 57.1933 28.5043 56.9514 28.7059C56.8708 28.7663 56.8103 28.8067 56.7297 28.8671C56.2056 29.2501 55.6613 29.613 55.0969 29.9355C54.5325 30.258 53.948 30.4999 53.3634 30.8023C53.3836 30.7821 53.706 30.6612 53.4843 30.7418C53.4036 30.7821 53.3231 30.8023 53.2424 30.8426C53.0812 30.9031 52.9199 30.9635 52.7385 31.024C52.4361 31.1248 52.1337 31.2256 51.8112 31.3062C51.1863 31.4876 50.5413 31.6086 49.8962 31.6892C49.5536 31.7295 49.1504 32.0924 48.9892 32.3746C48.8279 32.677 48.7674 32.9995 48.8078 33.3421C48.9085 34.0678 49.5334 34.6524 50.2994 34.6524C51.7709 34.6322 53.2424 34.6322 54.7139 34.733C55.0566 34.7532 55.3791 34.7935 55.7218 34.8338C55.7419 34.8338 56.1048 34.8943 55.8629 34.854C55.6009 34.8136 55.9637 34.8741 56.004 34.8741C56.1854 34.8943 56.3669 34.9346 56.5483 34.9749C57.2739 35.116 57.9795 35.2974 58.6648 35.5192C58.7858 35.5595 58.9269 35.62 59.0478 35.6603C59.1083 35.6804 59.1889 35.7207 59.2494 35.7409C59.3703 35.7812 59.4913 35.9022 59.1688 35.7006C59.4107 35.8619 59.713 35.9425 59.9751 36.0836C60.479 36.3456 60.9628 36.6278 61.4063 36.9504C61.5272 37.031 61.6481 37.1116 61.7691 37.2124C61.8094 37.2527 61.8699 37.2931 61.9102 37.3132C62.1118 37.4543 61.8296 37.2527 61.8094 37.2326C62.011 37.4342 62.273 37.6156 62.4948 37.797C62.9383 38.2002 63.3615 38.6033 63.7647 39.0468C63.9461 39.2483 64.1275 39.4499 64.2888 39.6515C64.3694 39.7523 64.4501 39.8531 64.5509 39.974C64.6719 40.1353 64.3291 39.6717 64.5105 39.9136C64.571 39.9942 64.6113 40.0547 64.6718 40.1353C65.0145 40.5989 65.3169 41.0827 65.6192 41.5665C65.9216 42.0704 66.2038 42.5945 66.4659 43.1186C66.5868 43.3807 66.7077 43.6427 66.8287 43.9048C66.8488 43.9652 66.869 44.0257 66.9093 44.066C66.748 43.683 66.8488 43.9048 66.8891 44.0055C66.9496 44.1668 67.0101 44.3079 67.0706 44.4692C67.5342 45.6786 67.8769 46.9082 68.1389 48.158C68.2196 48.5209 68.28 48.8635 68.3405 49.2264C68.3607 49.3675 68.3808 49.5287 68.4211 49.6698C68.4413 49.7908 68.4615 49.8916 68.4615 50.0125C68.4615 49.9521 68.4413 49.8916 68.4413 49.8311C68.4413 49.9117 68.4615 49.9722 68.4615 50.0528C68.5421 50.7785 68.6227 51.4841 68.663 52.2097C68.8848 55.5357 68.6832 58.8819 68.4615 62.1878C68.4212 62.9336 69.0662 63.5786 69.7717 63.6794C70.5176 63.7802 71.2029 63.3166 71.4246 62.5909C73.017 57.5313 73.2187 52.1895 74.408 47.0493C74.67 45.9004 74.9724 44.7514 75.3755 43.6225C75.4561 43.3807 75.557 43.1388 75.6376 42.917C75.6779 42.7961 75.7585 42.6752 75.7988 42.534C75.7988 42.5542 75.6577 42.8767 75.7585 42.655C75.7786 42.5945 75.819 42.5139 75.8392 42.4534C76.0609 41.9696 76.2826 41.506 76.5245 41.0424C77.0083 40.1151 77.5727 39.2282 78.1976 38.4017C78.2379 38.3614 78.2782 38.3009 78.2984 38.2606C78.0968 38.563 78.1573 38.442 78.2178 38.3614C78.2984 38.2606 78.3791 38.1598 78.4597 38.059C78.621 37.8575 78.8023 37.6559 78.9837 37.4543C79.3264 37.0713 79.6893 36.7085 80.0521 36.386C80.2739 36.1844 80.4754 36.003 80.7173 35.8215C80.7576 35.7812 80.798 35.7611 80.8584 35.7208C80.4956 36.003 80.7576 35.8014 80.8181 35.7409C80.939 35.6603 81.0399 35.5797 81.1608 35.499C81.6043 35.1967 82.0679 34.9145 82.5517 34.6726C82.6726 34.6121 82.8137 34.5516 82.9346 34.4911C82.9951 34.471 83.0355 34.4508 83.096 34.4307C83.3782 34.3097 82.7935 34.5516 83.0556 34.4508C83.3176 34.35 83.5797 34.2493 83.8619 34.1686C84.1441 34.088 84.4062 34.0073 84.6884 33.9469C84.8093 33.9267 84.9504 33.8864 85.0714 33.8663C85.1923 33.8461 85.7567 33.7655 85.2326 33.8259C85.6357 33.7655 86.0188 33.705 86.301 33.3825C86.5227 33.1406 86.6639 32.8584 86.7243 32.5157C86.8251 31.8303 86.3816 31.0039 85.6357 30.8628C85.0512 30.7418 84.4667 30.6007 83.8821 30.4193C83.62 30.3386 83.3781 30.2379 83.116 30.1572C82.9749 30.0968 82.8339 30.0363 82.6928 29.996C83.1564 30.1774 82.6322 29.9557 82.5113 29.9153C81.4429 29.4114 80.415 28.8067 79.4676 28.1011C79.4273 28.0608 79.3667 28.0205 79.3264 28.0004C79.1249 27.8391 79.4071 28.0608 79.4272 28.081C79.3264 27.9802 79.1854 27.8996 79.0644 27.7988C78.8225 27.5972 78.6007 27.4158 78.379 27.2142C77.9355 26.8111 77.4921 26.3878 77.0889 25.9241C76.6858 25.4807 76.3028 25.0372 75.9198 24.5736C75.8795 24.5131 75.8391 24.4526 75.7787 24.3922C75.7988 24.4123 76.0005 24.6743 75.8392 24.4728C75.7384 24.3518 75.6577 24.2309 75.5569 24.1099C75.3755 23.8681 75.1941 23.606 75.0329 23.3641C74.3677 22.3764 73.7831 21.3282 73.259 20.2598C73.138 19.9978 73.0171 19.7559 72.8962 19.4938C72.8558 19.4334 72.8357 19.3527 72.8155 19.2923C72.7148 19.0705 72.8558 19.3729 72.8558 19.393C72.7953 19.2116 72.7147 19.0504 72.6542 18.8891C72.4325 18.3449 72.2309 17.7804 72.0293 17.216C71.1827 14.7366 70.5578 12.1766 70.0539 9.59643C69.7717 8.16524 69.5097 6.71389 69.288 5.26253C69.1872 4.57717 69.0864 3.91198 68.9856 3.22662C68.9453 2.88394 68.8848 2.56141 68.8444 2.21873C68.8243 2.09779 68.7436 1.53337 68.8243 2.03731C68.8041 1.85589 68.784 1.69463 68.7638 1.51321C68.7034 1.0899 68.6227 0.747214 68.3203 0.444849C68.0583 0.182799 67.635 -0.0187677 67.252 0.00138998C66.869 0.0215476 66.4456 0.142484 66.1836 0.444849C65.9215 0.767371 65.6797 1.17052 65.7402 1.55352C66.4457 6.85498 67.252 12.2169 68.8848 17.3168C70.4571 22.1748 73.0171 26.8111 77.0285 30.0565C79.3063 31.8908 81.9268 33.3018 84.8094 33.8461C84.9505 32.8584 85.0714 31.8706 85.2125 30.8829C83.9627 31.0442 82.8137 31.3667 81.6446 31.8706C80.6165 32.3141 79.6691 32.9188 78.7821 33.6244C77.0486 34.9749 75.6174 36.7286 74.4886 38.6033C73.2993 40.5586 72.4325 42.7155 71.8479 44.9328C71.1424 47.5533 70.7392 50.2544 70.3361 52.9354C69.8926 55.959 69.429 58.9827 68.5017 61.9056C69.4895 62.0467 70.4772 62.1676 71.4649 62.3087C71.8479 56.342 72.1906 50.0932 70.1749 44.3482C68.5018 39.5507 65.216 35.0555 60.4387 33.0398C57.2336 31.6892 53.7262 31.6489 50.2994 31.6892C50.4405 32.6769 50.5614 33.6647 50.7026 34.6524C55.7823 33.9469 60.1162 30.6612 63.0793 26.6297C66.365 22.1547 67.7963 16.5307 68.4816 11.0881C68.8848 7.92335 68.9654 4.73843 68.7437 1.57367C68.6832 0.787524 68.0785 0.0215329 67.2318 0.0618482C66.4658 0.0820059 65.6797 0.706898 65.7402 1.55352Z" fill="#E5659B"/>
    <path d="M9.76199 42.534C10.1047 44.0459 10.407 45.5778 10.6691 47.1098C10.8102 47.8556 10.9312 48.6015 11.032 49.3473C11.0925 49.7303 11.1529 50.0931 11.1932 50.4761C11.2134 50.6374 11.2335 50.8188 11.2536 50.9801C11.2939 51.2623 11.2536 51.0002 11.2536 50.9599C11.2738 51.0809 11.294 51.2018 11.294 51.3429C11.6971 54.3867 11.939 57.4305 12.0599 60.4945C12.1204 61.8047 12.1205 63.0948 12.0399 64.4051C12.0197 64.7075 11.9995 65.0098 11.9592 65.3122C11.939 65.4734 11.9189 65.6347 11.8987 65.796C11.8786 65.9572 11.939 66.0782 11.8987 65.7556C11.9189 65.8564 11.8584 65.9774 11.8584 66.0782C11.7576 66.7031 11.6366 67.3078 11.4552 67.9125C11.3746 68.2149 11.2738 68.4971 11.173 68.7994C11.1327 68.9204 11.0521 69.0615 11.032 69.1824C11.1126 68.8801 11.1125 69.0212 11.0722 69.1018C11.0319 69.2026 10.9916 69.2832 10.9513 69.384C10.6691 69.9686 10.3466 70.5128 9.96356 71.0369C9.86277 71.1579 9.78216 71.299 9.68138 71.4199C9.70153 71.3796 9.88299 71.1579 9.72173 71.3595C9.68142 71.42 9.64106 71.4804 9.58059 71.5207C9.37901 71.7828 9.15724 72.0448 8.9355 72.3069C8.51219 72.7907 8.04862 73.2744 7.585 73.7381C7.08106 74.242 6.5569 74.7056 6.01264 75.1693C5.73043 75.4112 5.44827 75.653 5.1459 75.8748C5.08543 75.9353 5.0048 75.9957 4.94433 76.036C4.90401 76.0562 4.66212 76.2578 4.84354 76.1167C5.04511 75.9756 4.76291 76.1772 4.74275 76.1973C4.66212 76.2578 4.56137 76.3183 4.48074 76.3989C3.27128 77.2858 2.0215 78.1123 0.751572 78.8984C0.207315 79.2411 -0.155601 79.9668 0.0661328 80.6118C0.267709 81.2166 0.852321 81.7608 1.51752 81.7205C2.78746 81.6399 4.05739 81.5794 5.34748 81.6399C6.1941 81.6802 7.04072 81.7608 7.86719 81.8616C8.33081 81.9019 8.77424 81.9422 9.23787 81.9826C9.37897 81.9826 9.52009 82.0027 9.6612 82.0229C9.70151 82.0229 9.72167 82.0229 9.76199 82.043C9.92325 82.0632 9.88291 82.0632 9.64102 82.0229C9.68134 82.043 9.7822 82.043 9.82252 82.043C10.145 82.1035 10.4675 82.164 10.79 82.2648C11.0723 82.3454 11.3545 82.4462 11.6165 82.547C11.6972 82.5671 11.7577 82.6074 11.8383 82.6276C12.0399 82.7082 11.4754 82.4663 11.7778 82.6074C11.939 82.6881 12.0802 82.7485 12.2414 82.8292C12.8059 83.1114 13.3299 83.4339 13.8339 83.7967C13.8943 83.8371 13.9548 83.8975 14.0153 83.9378C14.237 84.0991 13.9548 83.8975 13.9347 83.8774C13.9951 83.9782 14.2168 84.0991 14.2975 84.1797C14.5595 84.4015 14.8014 84.6232 15.0433 84.8449C15.507 85.2884 15.9706 85.7722 16.3738 86.256C16.5753 86.4979 16.7769 86.7398 16.9583 86.9817C16.7567 86.6995 17.18 87.2639 16.9583 86.9817C16.9986 87.0421 17.039 87.0824 17.0793 87.1429C17.2002 87.3042 17.3211 87.4654 17.4219 87.6267C17.8049 88.171 18.1677 88.7152 18.5104 89.2796C19.2562 90.5092 19.9416 91.7993 20.5665 93.0894C20.9092 93.7949 21.2519 94.5206 21.5744 95.2261C21.655 95.3874 21.7155 95.5487 21.7961 95.7099C21.8365 95.7906 21.8768 95.8914 21.9171 95.972C22.0179 96.234 21.9171 95.9921 21.8969 95.9317C22.0784 96.3348 22.2194 96.738 22.3807 97.1411C23.6909 100.447 24.6988 103.854 25.4044 107.341C25.5455 108.087 26.372 108.51 27.0573 108.429C27.8636 108.329 28.2869 107.704 28.3676 106.938C29.0731 100.87 27.541 94.8431 27.9039 88.7555C27.924 88.2717 27.9845 87.788 28.0248 87.3243C28.045 87.2034 28.0652 87.0824 28.0652 86.9615C28.0854 86.7599 28.0047 87.3848 28.045 87.0825C28.045 87.022 28.0652 86.9817 28.0652 86.9212C28.1055 86.6591 28.1458 86.3971 28.1861 86.135C28.3675 85.107 28.6094 84.079 28.8916 83.0912C29.0528 82.5671 29.2141 82.043 29.3955 81.5189C29.4762 81.277 29.5568 81.0553 29.6576 80.8336C29.698 80.7126 29.7584 80.5917 29.7987 80.4707C29.8995 80.249 29.7584 80.5715 29.7382 80.5917C29.7786 80.511 29.7987 80.4304 29.839 80.3498C30.2623 79.4024 30.7461 78.4751 31.3307 77.6084C31.4718 77.3866 31.6331 77.1649 31.7944 76.9431C31.8145 76.9028 31.9959 76.6811 31.8144 76.9028C31.6532 77.1246 31.8347 76.8827 31.875 76.8424C31.9556 76.7416 32.0362 76.6408 32.137 76.54C32.4797 76.1368 32.8627 75.7538 33.2658 75.4112C33.3666 75.3104 33.4876 75.2297 33.5884 75.1491C33.7295 75.0282 33.3062 75.3507 33.4674 75.2499C33.5279 75.2096 33.5883 75.1693 33.6488 75.1088C33.8705 74.9677 34.0722 74.8266 34.3141 74.6855C34.5358 74.5646 34.7575 74.4436 34.9792 74.3428C35.0196 74.3226 35.2615 74.2219 34.9994 74.3227C34.7575 74.4234 34.9591 74.3428 35.0196 74.3227C35.1607 74.2622 35.3017 74.2219 35.4428 74.1816C36.0476 73.98 36.5918 73.3954 36.5515 72.7302C36.5112 72.0448 36.108 71.5006 35.4428 71.2788C32.8626 70.4121 30.1616 70.0492 27.5613 69.2228C27.2589 69.122 26.9565 69.0212 26.6542 68.9002C26.5937 68.8801 26.5331 68.8599 26.4727 68.8398C26.4324 68.8196 26.1703 68.6785 26.3921 68.7994C26.6138 68.9204 26.3518 68.7793 26.3114 68.7591C26.2308 68.7188 26.1301 68.6785 26.0494 68.6382C25.4649 68.3762 24.9206 68.0536 24.3965 67.6908C24.3158 67.6303 24.2352 67.5698 24.1545 67.5295C23.9731 67.4086 24.1949 67.59 24.2352 67.59C24.1748 67.6101 23.9126 67.3279 23.8522 67.2675C23.5901 67.0256 23.3281 66.7837 23.0862 66.5216C22.8846 66.2999 22.6831 66.058 22.4815 65.8161C22.3807 65.6952 22.2799 65.5742 22.1791 65.4533C22.4412 65.7556 22.28 65.5742 22.2195 65.4936C22.159 65.413 22.0985 65.3122 22.0179 65.2316C21.2922 64.2438 20.6874 63.1956 20.1432 62.1071C20.0021 61.8249 19.8812 61.5629 19.7602 61.2807C19.6997 61.1597 19.6393 61.0388 19.599 60.8977C19.5587 60.8372 19.5385 60.7566 19.4982 60.6961C19.3772 60.4139 19.6191 60.9783 19.4982 60.7162C19.2563 60.1317 19.0345 59.5269 18.8128 58.9423C17.9057 56.4428 17.2002 53.8626 16.414 51.3228C15.3255 47.896 14.0556 44.5296 12.4027 41.3447C12.0398 40.6392 10.9917 40.3771 10.3265 40.8005C9.60078 41.2641 9.39917 42.1107 9.78216 42.8767C10.1853 43.6427 10.5684 44.4288 10.9312 45.215C11.0925 45.5778 11.2739 45.9407 11.415 46.3035C11.3948 46.2632 11.294 46.0011 11.3948 46.2632C11.4351 46.3438 11.4754 46.4446 11.5157 46.5252C11.5964 46.7268 11.6769 46.9284 11.7576 47.1098C12.322 48.5208 12.826 49.9521 13.2896 51.4034C14.1362 54.0037 14.8619 56.6444 15.7489 59.2246C16.5955 61.6838 17.6235 64.1229 19.095 66.2797C19.8812 67.4287 20.7681 68.5979 21.8566 69.4848C23.0257 70.4725 24.3159 71.178 25.7471 71.7223C28.6095 72.831 31.7137 73.1535 34.6164 74.1211C34.6164 73.1535 34.6164 72.1859 34.6164 71.1982C30.2221 72.6092 27.7023 76.9835 26.3114 81.0956C25.5858 83.2122 25.1423 85.4295 24.9206 87.6469C24.6384 90.5092 24.8399 93.412 25.0818 96.2743C25.364 99.8019 25.7067 103.33 25.3036 106.857C26.2913 106.716 27.2791 106.595 28.2668 106.454C27.6217 103.289 26.7146 100.165 25.5857 97.1411C24.4368 94.0973 23.0862 91.0938 21.4534 88.2717C20.0625 85.8931 18.3895 83.575 16.2528 81.8213C15.0836 80.8739 13.8741 80.1079 12.4631 79.5636C11.2133 79.0597 9.90311 78.9186 8.5727 78.7976C7.60514 78.717 6.65777 78.5961 5.6902 78.5356C4.259 78.455 2.84793 78.5154 1.41674 78.5961C1.67878 79.5435 1.92064 80.4707 2.18269 81.4181C4.56129 79.9466 6.87944 78.334 8.95568 76.4191C11.0118 74.5041 12.9268 72.3069 13.9548 69.6662C14.9426 67.1264 15.1038 64.2841 15.0433 61.5628C14.9829 58.4787 14.7409 55.3946 14.3781 52.3508C13.9548 48.7627 13.35 45.1747 12.5639 41.6471C12.3825 40.8811 11.4553 40.357 10.7094 40.5989C10.0039 40.9416 9.56041 41.7076 9.76199 42.534Z" fill="#E5659B"/>
    <path d="M89.0624 83.1315C89.3446 84.2402 89.5664 85.3489 89.7277 86.4979C89.7075 86.3568 89.6873 86.2358 89.6671 86.0947C89.9695 88.3322 90.0099 90.6302 89.7075 92.8677C89.7276 92.7266 89.7478 92.6056 89.7679 92.4645C89.526 94.2787 89.0624 96.0526 88.3569 97.7257C88.4174 97.6047 88.4577 97.4838 88.5182 97.3629C88.1755 98.1692 87.7925 98.9553 87.3289 99.7011C87.1072 100.084 86.8451 100.467 86.583 100.83C86.4621 100.991 86.3412 101.152 86.2203 101.314C86.5428 100.89 86.2807 101.233 86.2001 101.334C86.1194 101.435 86.0388 101.535 85.9581 101.616C85.3937 102.301 84.7487 102.926 84.0835 103.511C83.9223 103.652 83.7408 103.793 83.5796 103.934C83.4788 104.015 83.1361 104.277 83.5594 103.954C83.4586 104.015 83.378 104.096 83.2772 104.176C82.8942 104.458 82.4911 104.72 82.0879 104.982C81.3219 105.446 80.5559 105.849 79.7294 106.192C79.8504 106.131 79.9713 106.091 80.0922 106.031C79.5077 106.273 78.9232 106.514 78.3386 106.776C77.9354 106.958 77.5525 107.119 77.2501 107.422C76.5647 108.067 76.6856 109.175 77.3911 109.719C77.754 110.002 78.2378 110.082 78.6611 110.203C79.3868 110.425 80.1124 110.687 80.8179 110.989C80.697 110.929 80.5761 110.889 80.4551 110.828C82.3701 111.655 84.2246 112.683 85.8775 113.932C85.9178 113.973 85.9582 113.993 85.9985 114.033C85.6558 113.771 85.7969 113.892 85.8775 113.932C85.9783 114.013 86.0589 114.074 86.1597 114.154C86.3411 114.295 86.5226 114.457 86.6838 114.598C86.9862 114.88 87.2885 115.162 87.5708 115.485C87.7119 115.626 87.8328 115.787 87.9739 115.948C88.0344 116.029 88.0948 116.109 88.1553 116.19C88.2158 116.271 88.3166 116.412 88.0344 116.049C88.0748 116.109 88.115 116.15 88.1553 116.21C88.3972 116.533 88.6392 116.875 88.8407 117.238C89.3648 118.065 89.7881 118.952 90.1913 119.859C90.1308 119.738 90.0905 119.617 90.03 119.496C91.4814 122.963 92.1465 126.692 92.7916 130.381C92.9528 131.369 93.1343 132.357 93.3157 133.344C93.3762 133.687 93.7188 134.09 94.001 134.251C94.3034 134.413 94.626 134.473 94.9687 134.433C95.7145 134.332 96.2587 133.707 96.2789 132.941C96.3394 131.268 96.3998 129.595 96.4603 127.902C96.5208 126.289 96.5208 124.656 96.7425 123.044C96.7223 123.185 96.7022 123.306 96.6821 123.447C96.8836 122.056 97.186 120.665 97.5488 119.315C97.7302 118.649 97.9318 117.984 98.1334 117.319C98.3148 116.775 98.4761 116.21 98.6978 115.666C98.6374 115.787 98.597 115.908 98.5365 116.029C98.8187 115.384 99.1816 114.779 99.6049 114.215C99.6654 114.134 99.7258 114.053 99.7863 113.953C99.9274 113.771 99.5242 114.275 99.746 113.993C99.8871 113.812 100.028 113.65 100.169 113.469C100.431 113.146 100.714 112.844 100.996 112.542C101.601 111.917 102.246 111.312 102.911 110.727C103.072 110.586 103.233 110.465 103.395 110.324C103.475 110.264 103.556 110.203 103.636 110.123C103.677 110.082 103.717 110.042 103.777 110.022C103.717 110.062 103.475 110.264 103.657 110.102C103.979 109.861 104.322 109.619 104.644 109.377C105.31 108.933 105.995 108.51 106.741 108.208C106.62 108.268 106.499 108.308 106.378 108.369C106.438 108.349 106.499 108.329 106.559 108.288C106.922 108.147 107.265 107.946 107.466 107.603C107.628 107.301 107.688 106.978 107.648 106.635C107.547 105.89 106.922 105.325 106.156 105.325C105.813 105.325 105.471 105.305 105.148 105.265C105.289 105.285 105.41 105.305 105.551 105.325C104.886 105.224 104.221 105.043 103.596 104.781C103.717 104.841 103.838 104.882 103.959 104.942C103.576 104.781 103.213 104.599 102.87 104.378C102.689 104.277 102.528 104.156 102.346 104.055C102.266 103.995 102.165 103.934 102.084 103.874C102.044 103.854 102.004 103.813 101.963 103.793C101.943 103.773 101.923 103.753 101.903 103.753C101.762 103.632 102.104 103.914 102.084 103.894C101.399 103.33 100.754 102.725 100.149 102.06C100.008 101.878 99.8468 101.717 99.7057 101.535C99.6452 101.455 99.5646 101.354 99.5041 101.273C99.3429 101.072 99.6654 101.475 99.6049 101.394C99.5646 101.334 99.5243 101.294 99.484 101.233C99.1816 100.85 98.9195 100.447 98.6373 100.044C98.0729 99.1972 97.569 98.3103 97.1054 97.4032C96.5611 96.355 96.0572 95.2665 95.5936 94.1779C95.654 94.2989 95.6943 94.4198 95.7548 94.5408C94.4042 91.3357 93.356 87.9895 92.4892 84.603C92.2876 83.8169 92.1062 83.0509 91.9248 82.2648C91.7434 81.4988 90.8161 80.9747 90.0703 81.2166C89.3043 81.5391 88.8608 82.3051 89.0624 83.1315C89.4857 84.9659 89.9494 86.8002 90.4936 88.6144C91.1185 90.731 91.8442 92.8475 92.6707 94.9036C93.5576 97.0605 94.5454 99.1972 95.7951 101.173C96.9038 102.947 98.2342 104.68 99.8669 105.99C100.653 106.615 101.48 107.2 102.407 107.603C103.435 108.046 104.443 108.329 105.572 108.429C105.793 108.45 106.015 108.45 106.217 108.45C106.075 107.462 105.955 106.474 105.813 105.486C104.161 106.131 102.729 107.139 101.359 108.248C99.9879 109.357 98.6978 110.606 97.6093 111.997C97.0651 112.683 96.5611 113.368 96.1579 114.154C95.6943 115.081 95.392 116.089 95.0896 117.077C94.3639 119.476 93.7793 121.915 93.5979 124.414C93.4971 125.825 93.477 127.257 93.4367 128.668C93.3963 130.119 93.3358 131.55 93.2955 133.002C94.2832 132.86 95.271 132.74 96.2587 132.598C95.5331 128.587 94.9888 124.515 93.6987 120.645C93.0335 118.69 92.207 116.734 90.9976 115.041C90.3928 114.174 89.7075 113.368 88.9415 112.642C88.0546 111.836 87.0668 111.11 86.0589 110.465C84.9503 109.74 83.7812 109.095 82.5717 108.55C81.8863 108.228 81.1808 107.946 80.4551 107.684C79.8706 107.482 79.286 107.321 78.7014 107.139C78.8223 107.2 78.9433 107.24 79.0643 107.301C79.2457 107.482 79.4069 107.643 79.5883 107.825C79.6488 107.946 79.6891 108.067 79.7496 108.188C79.7698 108.329 79.7899 108.45 79.8101 108.591C79.7899 108.732 79.7698 108.853 79.7496 108.994C79.6891 109.115 79.6488 109.236 79.5883 109.357C79.4674 109.538 79.3061 109.76 79.1247 109.84C79.165 109.82 79.1852 109.8 79.2255 109.78C79.3263 109.719 79.4271 109.679 79.5279 109.619C79.8101 109.478 80.1124 109.357 80.4148 109.236C80.2938 109.296 80.1729 109.336 80.052 109.397C80.8785 109.054 81.725 108.712 82.5313 108.288C83.4586 107.805 84.3254 107.24 85.1518 106.615C86.9056 105.265 88.4174 103.672 89.6067 101.818C91.9047 98.2901 92.9126 94.0167 92.9327 89.844C92.9327 87.3445 92.59 84.8248 91.9853 82.4059C91.7837 81.6399 90.8968 81.0956 90.1308 81.3577C89.3245 81.5391 88.8407 82.3051 89.0624 83.1315Z" fill="#E5659B"/>
    <path d="M109.483 29.6533C109.644 30.3991 109.785 31.1449 109.906 31.8908C109.966 32.2536 110.027 32.6366 110.087 33.0196C110.107 33.1405 110.208 33.705 110.128 33.2615C110.168 33.4832 110.188 33.705 110.208 33.9065C110.39 35.4385 110.531 36.9907 110.611 38.5428C110.773 41.6672 110.752 44.8118 110.531 47.9161C110.47 48.6821 110.41 49.4481 110.349 50.2342C110.309 50.5769 110.289 50.9397 110.248 51.2824C110.228 51.4437 110.208 51.6049 110.188 51.7864C110.188 51.867 110.168 51.9476 110.168 52.0081C110.148 52.1291 110.168 52.0686 110.188 51.8267C110.188 51.8872 110.168 51.9476 110.168 52.0081C109.986 53.2982 109.704 54.5681 109.362 55.8179C109.18 56.4428 108.979 57.0677 108.757 57.6724C108.636 57.9748 108.535 58.2771 108.414 58.5795C108.394 58.6601 108.354 58.7206 108.333 58.8012C108.454 58.4182 108.394 58.64 108.354 58.7408C108.273 58.902 108.213 59.0834 108.132 59.2447C107.588 60.434 106.963 61.5628 106.217 62.6514C106.015 62.9537 105.794 63.2561 105.572 63.5383C105.511 63.6189 105.39 63.7197 105.632 63.4577C105.572 63.5383 105.491 63.6189 105.431 63.6996C105.31 63.8407 105.209 63.9818 105.088 64.1229C104.624 64.6671 104.141 65.1711 103.617 65.675C103.355 65.9169 103.093 66.1588 102.81 66.4007C102.669 66.5216 102.508 66.6224 102.387 66.7434C102.649 66.4813 102.548 66.6224 102.448 66.703C102.367 66.7635 102.286 66.824 102.185 66.8845C101.601 67.3078 100.976 67.7109 100.331 68.0536C99.7665 68.356 99.4439 69.1421 99.6455 69.767C99.7262 70.0089 99.8472 70.2508 100.029 70.4322C100.25 70.6741 100.754 70.916 101.097 70.8757C102.447 70.7144 103.798 70.6338 105.149 70.6741C105.814 70.6943 106.459 70.7346 107.124 70.795C107.285 70.8152 107.467 70.8354 107.628 70.8555C107.749 70.8757 108.354 70.9563 107.83 70.8757C108.172 70.9362 108.515 70.9765 108.858 71.0369C110.168 71.2587 111.478 71.5812 112.748 71.9844C113.393 72.1859 114.038 72.4077 114.663 72.6697C114.804 72.7302 114.925 72.7705 115.066 72.831C115.147 72.8713 115.227 72.8914 115.308 72.9318C114.885 72.7705 115.167 72.8713 115.268 72.9116C115.59 73.0527 115.893 73.1938 116.215 73.3349C117.445 73.9195 118.634 74.5645 119.763 75.2902C120.327 75.6531 120.872 76.0159 121.396 76.419C121.537 76.5198 121.678 76.6206 121.819 76.7214C121.879 76.7819 121.96 76.8222 122.021 76.8827C121.698 76.6408 121.839 76.7416 121.92 76.802C122.222 77.0439 122.504 77.2657 122.787 77.5076C123.794 78.3542 124.762 79.2814 125.649 80.249C126.113 80.7529 126.556 81.277 127 81.8213C127.08 81.9422 127.181 82.043 127.262 82.164C126.939 81.781 127.322 82.2446 127.382 82.3454C127.584 82.6276 127.786 82.9098 127.987 83.192C128.834 84.4216 129.6 85.7117 130.245 87.0421C130.406 87.3848 130.567 87.7275 130.708 88.05C130.829 88.3322 130.567 87.7073 130.688 88.0097C130.729 88.1105 130.769 88.2314 130.809 88.3322C130.87 88.4935 130.93 88.6547 130.991 88.816C131.273 89.5417 131.515 90.2875 131.716 91.0333C131.938 91.7993 132.805 92.3436 133.571 92.0815C133.934 91.9606 134.297 91.7388 134.478 91.3962C134.68 91.0132 134.7 90.6503 134.639 90.227C134.639 90.2069 134.579 89.8239 134.619 90.0658C134.659 90.3077 134.599 89.9448 134.599 89.9247C134.579 89.7836 134.559 89.6425 134.538 89.5014C134.498 89.1788 134.458 88.8563 134.438 88.5338C134.397 88.0298 134.357 87.5259 134.337 87.022C134.317 86.2358 134.337 85.4295 134.317 84.6433C134.317 83.6556 134.256 82.6881 134.155 81.7003C134.075 80.9545 133.974 80.2087 133.873 79.4628C133.813 79.0194 133.752 78.5759 133.692 78.1123C133.672 78.0317 133.672 77.951 133.652 77.8704C133.591 77.4874 133.692 78.1123 133.652 77.8704C133.631 77.6486 133.591 77.4471 133.571 77.2253C133.39 75.7942 133.228 74.3428 133.188 72.8914C133.168 72.1456 133.168 71.4199 133.228 70.6741C133.248 70.3314 133.269 69.9686 133.329 69.6259C133.248 70.0492 133.369 69.4243 133.369 69.3437C133.41 69.1421 133.43 68.9607 133.47 68.7591C133.591 68.1342 133.773 67.5295 133.974 66.9449C134.055 66.6829 134.155 66.4208 134.256 66.1588C134.297 66.0378 134.337 65.9169 134.397 65.8161C134.418 65.7355 134.458 65.675 134.478 65.5944C134.619 65.2718 134.418 65.7556 134.478 65.6145C134.962 64.5462 135.506 63.5181 136.151 62.5506C136.332 62.2885 136.595 62.0063 136.756 61.7241C136.736 61.7443 136.534 62.0063 136.695 61.8047C136.756 61.7241 136.816 61.6636 136.877 61.583C136.978 61.4621 137.078 61.3411 137.179 61.2202C137.602 60.7364 138.046 60.2727 138.53 59.8293C138.772 59.6075 139.034 59.3858 139.296 59.1641C139.497 59.0028 139.235 59.2245 139.215 59.2245C139.296 59.1842 139.356 59.1036 139.437 59.0633C139.578 58.9625 139.719 58.8617 139.84 58.7609C140.384 58.3779 140.949 58.0554 141.553 57.7531C142.118 57.4708 142.44 56.6444 142.239 56.0397C142.017 55.3745 141.473 54.9713 140.787 54.931C140.082 54.8907 139.376 54.8302 138.671 54.7496C138.51 54.7294 138.348 54.7092 138.187 54.6891C138.106 54.6891 138.026 54.6488 137.945 54.6488C138.348 54.6286 138.086 54.6689 137.965 54.6488C137.602 54.5883 137.24 54.548 136.897 54.4875C135.526 54.2456 134.176 53.9432 132.865 53.5603C132.2 53.3587 131.555 53.1571 130.91 52.9152C130.608 52.7943 130.305 52.6935 129.983 52.5725C129.942 52.5524 129.519 52.3911 129.519 52.3911C129.58 52.4113 129.64 52.4516 129.701 52.4717C129.64 52.4516 129.58 52.4113 129.519 52.3911C129.439 52.3508 129.338 52.3105 129.257 52.2702C127.987 51.7057 126.778 51.0607 125.609 50.3149C125.024 49.9319 124.44 49.5489 123.895 49.1256C123.835 49.0853 123.794 49.0449 123.734 49.0046C123.794 49.0651 124.077 49.2465 123.734 49.0046C123.613 48.9038 123.472 48.803 123.351 48.7023C123.069 48.4805 122.807 48.2386 122.545 47.9967C122.041 47.5331 121.537 47.0493 121.073 46.5454C120.589 46.0213 120.166 45.4569 119.702 44.9328C119.985 45.2553 119.642 44.8522 119.582 44.7514C119.481 44.6103 119.38 44.4893 119.279 44.3482C119.057 44.0458 118.856 43.7435 118.654 43.4411C118.251 42.8364 117.888 42.2115 117.525 41.5866C116.82 40.3368 116.195 39.0467 115.61 37.7163C115.59 37.6559 115.55 37.5954 115.53 37.5349C115.51 37.4744 115.469 37.414 115.449 37.3535C115.53 37.5551 115.55 37.5752 115.489 37.4341C115.409 37.2527 115.328 37.0511 115.248 36.8697C115.107 36.5069 114.965 36.144 114.824 35.7812C114.542 35.0354 114.26 34.2694 113.998 33.5235C113.454 31.9714 112.95 30.4193 112.446 28.8671C112.204 28.1213 111.377 27.5569 110.591 27.8189C109.785 28.0407 109.22 28.847 109.483 29.6533C111.297 35.3176 113.192 41.1633 116.719 46.0213C118.513 48.5007 120.67 50.6374 123.21 52.3911C125.609 54.044 128.29 55.2938 131.051 56.2009C134.196 57.2289 137.481 57.7934 140.787 57.9748C140.525 57.0274 140.283 56.1001 140.021 55.1527C135.446 57.4305 132.261 61.966 130.87 66.824C130.023 69.7872 130.063 72.8713 130.406 75.8949C130.507 76.7416 130.608 77.568 130.729 78.4147C130.749 78.6162 130.789 78.7976 130.809 78.9992C130.829 79.0798 130.829 79.1605 130.85 79.2411C130.91 79.6241 130.809 78.9992 130.85 79.2613C130.91 79.6443 130.95 80.0474 131.011 80.4304C131.152 81.6197 131.293 82.809 131.313 83.9983C131.333 84.9054 131.313 85.8125 131.333 86.7196C131.374 88.1508 131.535 89.582 131.737 91.0132C132.704 90.7511 133.672 90.4689 134.659 90.2069C133.107 84.724 129.882 79.7652 125.649 75.9957C121.416 72.2061 116.175 69.4445 110.611 68.2955C107.507 67.6504 104.282 67.4489 101.137 67.852C101.399 68.7994 101.641 69.7267 101.903 70.6741C106.862 67.9528 110.208 63.0545 111.962 57.7732C112.869 55.0318 113.272 52.1895 113.494 49.307C113.756 46.1221 113.837 42.9372 113.716 39.7523C113.575 36.1037 113.191 32.4552 112.446 28.8873C112.284 28.1213 111.337 27.5972 110.591 27.8391C109.724 28.0608 109.321 28.8268 109.483 29.6533Z" fill="#E5659B"/>
</svg>
